<svg width="16" height="16" viewBox="0 0 16 16" fill="none" xmlns="http://www.w3.org/2000/svg">
    <g clip-path="url(#clip0_2287_5475)">
        <path
            d="M8.00002 16C6.54842 16.0004 5.12405 15.6059 3.87953 14.8587C2.63502 14.1115 1.61726 13.0397 0.935318 11.7583C0.253375 10.4768 -0.0670539 9.034 0.00836548 7.58435C0.0837849 6.13471 0.55221 4.73291 1.36345 3.52914C1.47637 3.3728 1.62214 3.24306 1.79054 3.14906C1.95894 3.05506 2.14588 2.99907 2.33823 2.98502C2.53058 2.97097 2.72367 2.9992 2.90394 3.06773C3.08421 3.13627 3.2473 3.24344 3.38174 3.38172C3.59968 3.60715 3.73287 3.90106 3.7587 4.21355C3.78454 4.52604 3.70141 4.83784 3.52345 5.096C3.00183 5.90125 2.70708 6.83228 2.67024 7.791C2.6334 8.74972 2.85584 9.70063 3.31413 10.5435C3.77241 11.3864 4.44957 12.0901 5.27425 12.5804C6.09893 13.0707 7.04059 13.3295 8.00002 13.3295C8.95945 13.3295 9.90111 13.0707 10.7258 12.5804C11.5505 12.0901 12.2276 11.3864 12.6859 10.5435C13.1442 9.70063 13.3666 8.74972 13.3298 7.791C13.293 6.83228 12.9982 5.90125 12.4766 5.096C12.2986 4.83784 12.2155 4.52604 12.2413 4.21355C12.2672 3.90106 12.4004 3.60715 12.6183 3.38172C12.7527 3.24344 12.9158 3.13627 13.0961 3.06773C13.2764 2.9992 13.4695 2.97097 13.6618 2.98502C13.8542 2.99907 14.0411 3.05506 14.2095 3.14906C14.3779 3.24306 14.5237 3.3728 14.6366 3.52914C15.4478 4.73291 15.9163 6.13471 15.9917 7.58435C16.0671 9.034 15.7467 10.4768 15.0647 11.7583C14.3828 13.0397 13.365 14.1115 12.1205 14.8587C10.876 15.6059 9.45162 16.0004 8.00002 16ZM8.00002 8C7.82483 8.00015 7.65133 7.96576 7.48945 7.89878C7.32757 7.83181 7.18048 7.73358 7.05661 7.6097C6.93273 7.48582 6.8345 7.33874 6.76752 7.17685C6.70055 7.01497 6.66616 6.84148 6.66631 6.66629V1.33371C6.66616 1.15853 6.70055 0.985028 6.76752 0.823147C6.8345 0.661265 6.93273 0.514178 7.05661 0.390301C7.18048 0.266424 7.32757 0.168189 7.48945 0.101217C7.65133 0.0342451 7.82483 -0.000149821 8.00002 4.90542e-07C8.17511 4.26149e-07 8.34849 0.0345063 8.51024 0.101546C8.67199 0.168585 8.81894 0.266844 8.9427 0.390706C9.06645 0.514567 9.16458 0.661604 9.23149 0.823411C9.29839 0.985218 9.33274 1.15862 9.33259 1.33371V6.66629C9.33274 6.84138 9.29839 7.01478 9.23149 7.17659C9.16458 7.3384 9.06645 7.48543 8.9427 7.6093C8.81894 7.73316 8.67199 7.83142 8.51024 7.89846C8.34849 7.9655 8.17511 8 8.00002 8Z"
            fill="#284C9A" />
    </g>
    <defs>
        <clipPath id="clip0_2287_5475">
            <rect width="16" height="16" fill="white" />
        </clipPath>
    </defs>
</svg>
    