<svg width="14" height="14" viewBox="0 0 14 14" fill="none" xmlns="http://www.w3.org/2000/svg">
<path fill-rule="evenodd" clip-rule="evenodd" d="M7.17361 11.671L10.1911 8.19104L1.18662 8.14304C1.04884 8.14244 0.912506 8.11014 0.785432 8.04799C0.658358 7.98584 0.543035 7.89506 0.446062 7.78084C0.34909 7.66662 0.272372 7.5312 0.220299 7.38235C0.168226 7.23349 0.141821 7.07411 0.142595 6.91333C0.143236 6.75264 0.17101 6.59368 0.224329 6.44553C0.277648 6.29738 0.355466 6.16294 0.453336 6.0499C0.551205 5.93686 0.667206 5.84744 0.794708 5.78675C0.922211 5.72606 1.05871 5.69528 1.19641 5.69619L10.1989 5.74304L7.2216 2.22761C7.12455 2.1136 7.04772 1.97837 6.99549 1.82968C6.94326 1.68099 6.91666 1.52175 6.91721 1.36105C6.91775 1.20035 6.94544 1.04136 6.99867 0.893156C7.05191 0.744953 7.12966 0.610447 7.22747 0.497329C7.42523 0.26899 7.69257 0.14158 7.97078 0.14308C8.24898 0.144579 8.5153 0.274868 8.71124 0.505329L13.6082 6.27561C13.7687 6.46506 13.8581 6.72115 13.8569 6.98756C13.8556 7.25396 13.7636 7.50886 13.6013 7.69619L8.65248 13.4105C8.45489 13.6387 8.18771 13.7661 7.90967 13.7646C7.63162 13.7631 7.36547 13.6329 7.16969 13.4025C7.07249 13.2885 6.99548 13.1533 6.94307 13.0046C6.89066 12.8559 6.86387 12.6966 6.86424 12.5358C6.8646 12.375 6.89211 12.2159 6.94519 12.0675C6.99828 11.9191 7.07589 11.7844 7.17361 11.671Z" fill="#737373"/>
</svg>
