<svg width="18" height="18" viewBox="0 0 18 18" fill="none" xmlns="http://www.w3.org/2000/svg">
    <path fill-rule="evenodd" clip-rule="evenodd" d="M9.2175 14.8386L12.9894 10.4886L1.73376 10.4286C1.56153 10.4278 1.39112 10.3874 1.23228 10.3097C1.07344 10.2321 0.929282 10.1186 0.808066 9.9758C0.68685 9.83303 0.590953 9.66376 0.525862 9.47769C0.460771 9.29162 0.427765 9.09239 0.428732 8.89142C0.429533 8.69056 0.464251 8.49186 0.530899 8.30667C0.597548 8.12148 0.694821 7.95343 0.817158 7.81213C0.939494 7.67084 1.0845 7.55906 1.24387 7.48319C1.40325 7.40733 1.57388 7.36886 1.74601 7.36999L12.9992 7.42856L9.27748 3.03427C9.15618 2.89175 9.06014 2.72272 8.99486 2.53686C8.92957 2.351 8.89632 2.15194 8.897 1.95107C8.89768 1.7502 8.93228 1.55146 8.99883 1.3662C9.06538 1.18095 9.16256 1.01281 9.28483 0.871417C9.53203 0.585994 9.86621 0.42673 10.214 0.428605C10.5617 0.43048 10.8946 0.593341 11.1395 0.881417L17.2607 8.09427C17.4613 8.33108 17.5732 8.6512 17.5716 8.9842C17.5699 9.31721 17.455 9.63583 17.2521 9.86999L11.0661 17.0128C10.8191 17.2982 10.4851 17.4574 10.1376 17.4555C9.79002 17.4537 9.45732 17.2908 9.2126 17.0028C9.0911 16.8604 8.99484 16.6914 8.92933 16.5055C8.86382 16.3196 8.83033 16.1205 8.83079 15.9195C8.83124 15.7185 8.86563 15.5196 8.93198 15.3341C8.99833 15.1487 9.09535 14.9803 9.2175 14.8386Z" fill="#284C9A"/>
    </svg>
    