<svg width="44" height="44" viewBox="0 0 44 44" fill="none" xmlns="http://www.w3.org/2000/svg">
<rect width="44" height="44" rx="12" fill="#12602C"/>
<g clip-path="url(#clip0_2470_8086)">
<path d="M22 14C20.4178 14 18.871 14.4692 17.5554 15.3482C16.2398 16.2273 15.2145 17.4767 14.609 18.9385C14.0035 20.4003 13.845 22.0089 14.1537 23.5607C14.4624 25.1126 15.2243 26.538 16.3431 27.6569C17.462 28.7757 18.8874 29.5376 20.4393 29.8463C21.9911 30.155 23.5997 29.9965 25.0615 29.391C26.5233 28.7855 27.7727 27.7602 28.6518 26.4446C29.5308 25.129 30 23.5823 30 22C30 19.8783 29.1571 17.8434 27.6569 16.3431C26.1566 14.8429 24.1217 14 22 14ZM25.152 23.1691H23.1337V25.1863C23.1337 25.487 23.0143 25.7753 22.8017 25.9879C22.589 26.2006 22.3007 26.32 22 26.32C21.6993 26.32 21.411 26.2006 21.1983 25.9879C20.9857 25.7753 20.8663 25.487 20.8663 25.1863V23.1691H18.848C18.5534 23.1598 18.274 23.0362 18.0689 22.8245C17.8638 22.6128 17.7492 22.3296 17.7492 22.0349C17.7492 21.7401 17.8638 21.4569 18.0689 21.2452C18.274 21.0335 18.5534 20.9099 18.848 20.9006H20.8663V18.8834C20.8663 18.5827 20.9857 18.2944 21.1983 18.0818C21.411 17.8692 21.6993 17.7497 22 17.7497C22.3007 17.7497 22.589 17.8692 22.8017 18.0818C23.0143 18.2944 23.1337 18.5827 23.1337 18.8834V20.9006H25.152C25.4466 20.9099 25.726 21.0335 25.9311 21.2452C26.1362 21.4569 26.2509 21.7401 26.2509 22.0349C26.2509 22.3296 26.1362 22.6128 25.9311 22.8245C25.726 23.0362 25.4466 23.1598 25.152 23.1691Z" fill="#F0F7FE"/>
</g>
<defs>
<clipPath id="clip0_2470_8086">
<rect width="16" height="16" fill="white" transform="translate(14 14)"/>
</clipPath>
</defs>
</svg>
