<svg width="20" height="20" viewBox="0 0 20 20" fill="none" xmlns="http://www.w3.org/2000/svg">
<path fill-rule="evenodd" clip-rule="evenodd" d="M13.5503 1.18857H18.6574C18.8881 1.18857 19.1094 1.28023 19.2726 1.44339C19.4357 1.60655 19.5274 1.82783 19.5274 2.05857V3.73857C19.5274 3.96931 19.4357 4.1906 19.2726 4.35375C19.1094 4.51691 18.8881 4.60857 18.6574 4.60857H1.34168C1.11094 4.60857 0.889655 4.51691 0.726498 4.35375C0.563341 4.1906 0.471681 3.96931 0.471681 3.73857V2.05857C0.471493 1.94427 0.493868 1.83105 0.537522 1.72541C0.581177 1.61978 0.645254 1.52379 0.726078 1.44297C0.806903 1.36214 0.902886 1.29807 1.00852 1.25441C1.11416 1.21076 1.22738 1.18838 1.34168 1.18857H6.42882V0.942857C6.42882 0.142857 7.08311 0 7.88882 0H12.0845C12.8903 0 13.5503 0.142857 13.5503 0.942857V1.18857ZM3.16737 6.91999H16.8317C16.955 6.92004 17.077 6.94633 17.1895 6.99713C17.3019 7.04792 17.4023 7.12205 17.4839 7.2146C17.5655 7.30715 17.6265 7.416 17.6628 7.53392C17.6991 7.65184 17.7099 7.77614 17.6945 7.89856L16.2945 18.5014C16.2421 18.9148 16.0409 19.2949 15.7285 19.5707C15.4162 19.8465 15.0141 19.9991 14.5974 20H5.40165C4.98619 19.9974 4.58581 19.844 4.27495 19.5684C3.9641 19.2927 3.76392 18.9136 3.71165 18.5014L2.31022 7.89856C2.29511 7.77666 2.30595 7.65293 2.34202 7.53551C2.37809 7.41808 2.43858 7.30961 2.51952 7.21721C2.60045 7.1248 2.70001 7.05056 2.81166 6.99933C2.92331 6.94811 3.04453 6.92107 3.16737 6.91999Z" fill="#284C9A"/>
</svg>
