<svg width="20" height="20" viewBox="0 0 20 20" fill="none" xmlns="http://www.w3.org/2000/svg">
    <g clip-path="url(#clip0_1635_6336)">
    <path fill-rule="evenodd" clip-rule="evenodd" d="M12.3067 2.30719H7.69238C7.53748 2.31264 7.38306 2.28684 7.23835 2.23132C7.09363 2.1758 6.96158 2.09171 6.85006 1.98405C6.73855 1.87639 6.64986 1.74738 6.58929 1.6047C6.52872 1.46203 6.4975 1.30862 6.4975 1.15361C6.4975 0.998614 6.52872 0.845201 6.58929 0.702526C6.64986 0.559851 6.73855 0.430838 6.85006 0.32318C6.96158 0.215523 7.09363 0.131428 7.23835 0.0759105C7.38306 0.0203931 7.53748 -0.00540912 7.69238 4.294e-05H12.3067C12.4616 -0.00540912 12.616 0.0203931 12.7607 0.0759105C12.9054 0.131428 13.0375 0.215523 13.149 0.32318C13.2605 0.430838 13.3492 0.559851 13.4098 0.702526C13.4703 0.845201 13.5016 0.998614 13.5016 1.15361C13.5016 1.30862 13.4703 1.46203 13.4098 1.6047C13.3492 1.74738 13.2605 1.87639 13.149 1.98405C13.0375 2.09171 12.9054 2.1758 12.7607 2.23132C12.616 2.28684 12.4616 2.31264 12.3067 2.30719ZM16.1524 1.83717H16.9224C17.0739 1.83717 17.2239 1.86704 17.3639 1.92507C17.5039 1.98309 17.631 2.06814 17.7381 2.17534C17.8452 2.28255 17.9301 2.40981 17.9879 2.54984C18.0458 2.68988 18.0754 2.83994 18.0753 2.99146V18.8457C18.0754 18.9973 18.0458 19.1473 17.9879 19.2874C17.9301 19.4274 17.8452 19.5547 17.7381 19.6619C17.631 19.7691 17.5039 19.8541 17.3639 19.9121C17.2239 19.9702 17.0739 20 16.9224 20H3.07669C2.77118 20 2.47816 19.8788 2.262 19.6629C2.04584 19.447 1.92421 19.1541 1.92383 18.8486V2.99146C1.92364 2.83994 1.95332 2.68988 2.01117 2.54984C2.06903 2.40981 2.15392 2.28255 2.26099 2.17534C2.36806 2.06814 2.49521 1.98309 2.63518 1.92507C2.77514 1.86704 2.92517 1.83717 3.07669 1.83717H3.84669C4.15257 1.83755 4.4458 1.95933 4.66197 2.17576C4.87813 2.39219 4.99954 2.68557 4.99954 2.99146C4.99954 3.18943 5.03858 3.38546 5.11443 3.56833C5.19028 3.7512 5.30145 3.91732 5.44157 4.05717C5.58169 4.19703 5.74801 4.30788 5.93103 4.38338C6.11404 4.45888 6.31014 4.49755 6.50812 4.49717H13.4967C13.8904 4.4965 14.2682 4.34166 14.5491 4.06582C14.83 3.78998 14.9917 3.41508 14.9995 3.02146V2.99146C14.9995 2.68557 15.121 2.39219 15.3371 2.17576C15.5533 1.95933 15.8465 1.83755 16.1524 1.83717ZM7.6924 14.2315H12.3067C12.4616 14.2369 12.616 14.2111 12.7607 14.1556C12.9054 14.1001 13.0375 14.016 13.149 13.9083C13.2605 13.8007 13.3492 13.6716 13.4098 13.529C13.4704 13.3863 13.5016 13.2329 13.5016 13.0779C13.5016 12.9229 13.4704 12.7695 13.4098 12.6268C13.3492 12.4841 13.2605 12.3551 13.149 12.2475C13.0375 12.1398 12.9054 12.0557 12.7607 12.0002C12.616 11.9447 12.4616 11.9189 12.3067 11.9243H7.6924C7.5375 11.9189 7.38308 11.9447 7.23836 12.0002C7.09365 12.0557 6.96159 12.1398 6.85008 12.2475C6.73857 12.3551 6.64988 12.4841 6.5893 12.6268C6.52873 12.7695 6.49751 12.9229 6.49751 13.0779C6.49751 13.2329 6.52873 13.3863 6.5893 13.529C6.64988 13.6716 6.73857 13.8007 6.85008 13.9083C6.96159 14.016 7.09365 14.1001 7.23836 14.1556C7.38308 14.2111 7.5375 14.2369 7.6924 14.2315ZM7.6924 9.61575H12.3067C12.4616 9.6212 12.616 9.5954 12.7607 9.53988C12.9054 9.48436 13.0375 9.40026 13.149 9.29261C13.2605 9.18495 13.3492 9.05594 13.4098 8.91326C13.4704 8.77059 13.5016 8.61718 13.5016 8.46217C13.5016 8.30717 13.4704 8.15376 13.4098 8.01109C13.3492 7.86841 13.2605 7.7394 13.149 7.63174C13.0375 7.52408 12.9054 7.43999 12.7607 7.38447C12.616 7.32895 12.4616 7.30315 12.3067 7.3086H7.6924C7.5375 7.30315 7.38308 7.32895 7.23836 7.38447C7.09365 7.43999 6.96159 7.52408 6.85008 7.63174C6.73857 7.7394 6.64988 7.86841 6.5893 8.01109C6.52873 8.15376 6.49751 8.30717 6.49751 8.46217C6.49751 8.61718 6.52873 8.77059 6.5893 8.91326C6.64988 9.05594 6.73857 9.18495 6.85008 9.29261C6.96159 9.40026 7.09365 9.48436 7.23836 9.53988C7.38308 9.5954 7.5375 9.6212 7.6924 9.61575Z" fill="#284C9A"/>
    </g>
    <defs>
    <clipPath id="clip0_1635_6336">
    <rect width="20" height="20" fill="white"/>
    </clipPath>
    </defs>
    </svg>
    