<svg width="16" height="16" viewBox="0 0 16 16" fill="none" xmlns="http://www.w3.org/2000/svg">
    <path
        d="M9.92347 8.02514V13.92C9.9237 14.091 9.87595 14.2587 9.78565 14.404C9.69534 14.5492 9.5661 14.6662 9.41261 14.7417L7.01261 15.9303C6.91043 15.9809 6.79703 16.0045 6.68315 15.999C6.56927 15.9935 6.45868 15.959 6.36185 15.8988C6.26502 15.8386 6.18517 15.7547 6.12985 15.655C6.07454 15.5553 6.04559 15.4432 6.04575 15.3291V8.02057C6.04602 7.3027 5.77966 6.61031 5.29833 6.07771L0.785183 1.08914C0.700366 0.995657 0.644537 0.879542 0.624484 0.754916C0.604431 0.63029 0.621018 0.502523 0.672228 0.387148C0.723438 0.271774 0.807066 0.173763 0.912942 0.105033C1.01882 0.036302 1.14238 -0.000187539 1.26861 7.24835e-07H14.7315C14.8578 0.000131925 14.9814 0.0369418 15.0873 0.105961C15.1931 0.174981 15.2766 0.273242 15.3277 0.388814C15.3788 0.504386 15.3952 0.632299 15.3749 0.757023C15.3547 0.881746 15.2987 0.997917 15.2138 1.09143L10.6778 6.07543C10.1923 6.60875 9.92337 7.30399 9.92347 8.02514Z"
        fill="#F0FDF3" />
</svg>
    