<?xml version="1.0" encoding="UTF-8"?>
<svg xmlns="http://www.w3.org/2000/svg" xmlns:xlink="http://www.w3.org/1999/xlink" xmlns:xodm="http://www.corel.com/coreldraw/odm/2003" xml:space="preserve" width="512px" height="512px" version="1.1" style="shape-rendering:geometricPrecision; text-rendering:geometricPrecision; image-rendering:optimizeQuality; fill-rule:evenodd; clip-rule:evenodd" viewBox="0 0 320.3 320.3"> <defs> <style type="text/css"> .fil0 {fill:none} .fil1 {fill:#373435;fill-rule:nonzero} .fil2 {fill:#1354E0;fill-rule:nonzero} .fil5 {fill:#1354E0;fill-rule:nonzero} .fil7 {fill:#3E4546;fill-rule:nonzero} .fil3 {fill:#90A6B4;fill-rule:nonzero} .fil6 {fill:#EDF5F7;fill-rule:nonzero} .fil8 {fill:red;fill-rule:nonzero} .fil4 {fill:red;fill-rule:nonzero} </style> </defs> <g id="Capa_x0020_1"> <metadata id="CorelCorpID_0Corel-Layer"/> <rect class="fil0" width="320.3" height="320.3"/> <path class="fil1" d="M204.03 207.73l-19.09 -19.08c-1.02,-1.03 -1.02,-2.68 0,-3.71 1.02,-1.02 2.68,-1.02 3.7,0l19.09 19.09c1.03,1.02 1.03,2.68 0,3.7 -1.02,1.03 -2.68,1.03 -3.7,0z"/> <path class="fil2" d="M282.34 316.75l-91.14 -91.14c-1.4,-1.39 -1.4,-3.65 0,-5.04l29.37 -29.37c1.39,-1.4 3.65,-1.4 5.04,0l91.14 91.14c1.39,1.39 1.39,3.65 0,5.04l-29.37 29.37c-1.39,1.39 -3.65,1.39 -5.04,0z"/> <path class="fil3" d="M300.62 296.92l-12.55 -12.55 15.36 -15.36 -3.71 -3.7 -15.35 15.36 -13.14 -13.15 15.35 -15.35 0 0 -3.7 -3.7 0 0 -15.36 15.35 -13.14 -13.14 15.36 -15.36 -3.71 -3.7 -15.35 15.36 -13.14 -13.14 15.35 -15.36 -3.7 -3.7 0 0 -15.36 15.35 -13.14 -13.14 15.36 -15.36 0 0 -3.71 -3.7 0 0 -15.35 15.36 -9.26 -9.26 -3.7 3.7 9.26 9.26 -15.36 15.35 0 0 3.7 3.71 0 0 15.36 -15.36 13.14 13.15 -15.35 15.35 0 0 3.7 3.7 15.35 -15.35 13.15 13.14 -15.36 15.35 3.7 3.71 15.36 -15.36 13.14 13.14 -15.35 15.36 0 0 3.7 3.7 0 0 15.35 -15.35 13.15 13.14 -15.36 15.35 3.7 3.71 15.36 -15.36 12.55 12.55c1.02,1.02 2.68,1.02 3.7,0 1.02,-1.02 1.02,-2.68 0,-3.7z"/> <path class="fil4" d="M316.75 282.34l-4.07 -4.07 -34.41 34.41 4.07 4.07c1.39,1.39 3.65,1.39 5.04,0l29.37 -29.37c1.39,-1.39 1.39,-3.65 0,-5.04z"/> <path class="fil1" d="M131.65 135.36l-19.08 -19.09c-1.03,-1.02 -1.03,-2.68 0,-3.7 1.02,-1.03 2.68,-1.03 3.7,0l19.09 19.08c1.02,1.03 1.02,2.68 0,3.71 -1.03,1.02 -2.68,1.02 -3.71,0z"/> <path class="fil5" d="M37.96 3.55l91.14 91.14c1.39,1.39 1.39,3.65 0,5.04l-29.37 29.37c-1.39,1.39 -3.65,1.39 -5.04,0l-91.14 -91.14c-1.4,-1.39 -1.4,-3.65 0,-5.04l29.37 -29.37c1.39,-1.4 3.65,-1.4 5.04,0z"/> <path class="fil3" d="M116.27 112.57l-9.26 -9.26 15.36 -15.36 -3.71 -3.7 0 0 -15.35 15.36 -13.14 -13.15 15.35 -15.35 0 0 -3.7 -3.7 0 0 -15.36 15.35 -13.14 -13.14 15.36 -15.36 -3.71 -3.7 -15.35 15.36 -13.14 -13.15 15.35 -15.35 0 0 -3.7 -3.7 0 0 -15.36 15.35 -13.14 -13.14 15.36 -15.36 0 0 -3.71 -3.7 0 0 -15.35 15.36 -12.55 -12.55c-1.03,-1.03 -2.68,-1.03 -3.71,0 -1.02,1.02 -1.02,2.68 0,3.7l12.56 12.55 -15.36 15.35 0 0 3.7 3.71 0 0 15.36 -15.36 13.14 13.14 -15.35 15.36 0 0 3.7 3.7 0 0 15.35 -15.35 13.15 13.14 -15.36 15.35 3.7 3.71 15.36 -15.36 13.14 13.14 -15.35 15.36 0 0 3.7 3.7 0 0 15.35 -15.35 13.15 13.14 -15.36 15.35 0 0 3.7 3.71 15.36 -15.36 9.26 9.26 3.7 -3.7z"/> <path class="fil4" d="M3.55 37.96l4.07 4.07 34.41 -34.41 -4.07 -4.07c-1.39,-1.4 -3.65,-1.4 -5.04,0l-29.37 29.37c-1.4,1.39 -1.4,3.65 0,5.04z"/> <path class="fil6" d="M136.41 235.43l-51.54 -51.55c-4.57,-4.57 -4.57,-11.98 0,-16.55l66.83 -66.83c4.57,-4.57 11.98,-4.57 16.55,0l51.55 51.55c4.57,4.57 4.57,11.98 0,16.55l-66.83 66.83c-4.57,4.57 -11.98,4.57 -16.56,0z"/> <polygon class="fil1" points="112.49,211.51 108.79,207.81 192.17,124.42 195.88,128.12 "/> <polygon class="fil5" points="180,208.4 111.9,140.3 140.3,111.9 208.4,180 "/> <path class="fil1" d="M116.6 231.34l-27.65 -27.64c-2.58,-2.59 -2.58,-6.78 0,-9.37l3.19 -3.18 37.01 37.01 -3.19 3.18c-2.58,2.59 -6.78,2.59 -9.36,0z"/> <path class="fil1" d="M197.64 154.39l-31.74 -31.73c-1.02,-1.03 -1.02,-2.68 0,-3.7 1.03,-1.03 2.68,-1.03 3.71,0l31.73 31.73c1.03,1.02 1.03,2.68 0,3.7 -1.02,1.03 -2.68,1.03 -3.7,0z"/> <path class="fil1" d="M188.07 104.59l27.64 27.64c2.59,2.59 2.59,6.78 0,9.37l-3.18 3.18 -37.01 -37.01 3.18 -3.18c2.59,-2.59 6.78,-2.59 9.37,0z"/> <path class="fil6" d="M266.04 145.72c-6.2,6.2 -31.68,-9.22 -56.91,-34.45 -25.23,-25.23 -40.66,-50.71 -34.45,-56.91 6.2,-6.21 31.68,9.22 56.91,34.45 25.23,25.23 40.65,50.71 34.45,56.91z"/> <path class="fil7" d="M209.13 111.27c-25.23,-25.23 -40.66,-50.71 -34.45,-56.91 -10.43,10.42 -0.4,41.3 24.83,66.53 25.23,25.23 56.11,35.26 66.53,24.83 -6.2,6.2 -31.68,-9.22 -56.91,-34.45z"/> <path class="fil1" d="M215.3 105.1c-1.03,-1.02 -1.03,-2.68 0,-3.7l23.24 -23.25c1.03,-1.02 2.68,-1.02 3.71,0 1.02,1.03 1.02,2.68 0,3.71l-23.25 23.24c-1.02,1.03 -2.68,1.03 -3.7,0z"/> <path class="fil8" d="M246.91 84.69c-3.1,3.09 -8.11,3.09 -11.2,0 -3.1,-3.09 -3.1,-8.11 0,-11.2 3.09,-3.09 8.1,-3.09 11.2,0 3.09,3.09 3.09,8.11 0,11.2z"/> </g> </svg>