<?xml version="1.0" standalone="no"?>
<!DOCTYPE svg PUBLIC "-//W3C//DTD SVG 20010904//EN"
 "http://www.w3.org/TR/2001/REC-SVG-20010904/DTD/svg10.dtd">
<svg version="1.0" xmlns="http://www.w3.org/2000/svg"
 width="1237.000000pt" height="1199.000000pt" viewBox="0 0 1237.000000 1199.000000"
 preserveAspectRatio="xMidYMid meet">

<g transform="translate(0.000000,1199.000000) scale(0.100000,-0.100000)"
fill="#000000" stroke="none">
<path d="M247 11976 c-100 -36 -173 -133 -226 -299 -14 -48 -16 -532 -18
-5865 l-3 -5812 315 0 315 0 0 5505 0 5505 2110 0 2110 0 0 -2558 0 -2558 -62
-18 c-35 -10 -74 -22 -88 -26 -14 -5 -59 -18 -100 -30 -41 -12 -86 -26 -100
-30 -14 -5 -59 -18 -100 -30 -41 -12 -86 -26 -100 -30 -14 -5 -72 -23 -130
-40 -189 -57 -293 -88 -400 -120 -58 -17 -149 -45 -202 -61 -54 -16 -144 -43
-200 -60 -57 -17 -114 -35 -128 -39 -14 -5 -59 -18 -100 -30 -41 -12 -115 -35
-165 -50 -49 -15 -124 -37 -165 -49 -107 -32 -142 -43 -170 -52 -14 -4 -72
-22 -130 -39 -58 -17 -150 -45 -205 -62 -55 -16 -145 -43 -200 -59 -55 -17
-142 -43 -192 -60 -51 -16 -98 -29 -104 -29 -25 0 -157 -70 -185 -99 -18 -17
-41 -52 -53 -76 -21 -45 -21 -45 -21 -1350 0 -863 3 -1305 10 -1305 7 0 10
-365 10 -1075 l0 -1075 490 0 490 0 0 2299 0 2299 53 16 c28 9 70 21 92 27 22
7 65 20 95 29 30 10 89 28 130 40 94 27 138 41 170 51 14 4 59 17 100 29 41
12 86 26 100 30 14 5 59 18 100 30 41 12 86 26 100 30 14 5 72 23 130 40 58
17 148 44 200 61 52 16 113 34 135 40 22 7 60 19 85 27 25 8 59 18 75 22 17 5
62 18 100 30 39 12 84 25 100 30 17 5 62 18 100 30 39 12 84 25 100 30 17 5
60 18 98 29 37 12 96 30 131 40 35 10 73 22 85 26 l21 6 0 -2645 0 -2646 315
0 315 0 2 2741 3 2741 40 13 c22 7 74 22 115 35 102 30 140 41 170 51 14 4 71
21 128 38 56 17 148 45 205 62 56 17 145 43 197 59 52 16 142 43 200 61 99 30
196 59 355 108 77 23 121 26 157 12 13 -6 57 -20 98 -31 41 -12 86 -26 100
-30 14 -5 59 -18 100 -31 41 -12 100 -29 130 -39 30 -9 75 -23 100 -30 25 -7
70 -21 100 -30 30 -10 89 -27 130 -39 41 -13 86 -26 100 -31 14 -4 59 -18 100
-30 41 -12 86 -25 100 -30 14 -5 59 -18 100 -30 41 -12 86 -26 100 -30 14 -5
59 -18 100 -30 41 -12 86 -26 100 -30 14 -5 59 -18 100 -31 41 -12 100 -29
130 -39 30 -9 75 -23 100 -30 25 -7 70 -21 100 -30 30 -10 89 -28 130 -40 88
-26 113 -33 199 -60 35 -11 70 -20 78 -20 7 0 21 -4 31 -9 27 -14 148 -51 166
-51 9 0 24 -4 34 -9 27 -14 148 -51 166 -51 9 0 24 -4 34 -9 17 -9 103 -36
192 -61 25 -7 54 -16 65 -20 50 -18 93 -30 113 -30 11 0 24 -4 27 -10 3 -5 15
-10 26 -10 10 0 27 -4 37 -9 21 -12 153 -51 170 -51 7 0 20 -4 30 -9 27 -14
148 -51 166 -51 9 0 24 -4 34 -9 27 -14 148 -51 166 -51 9 0 24 -4 34 -9 30
-15 149 -51 170 -51 12 0 24 -4 27 -10 3 -6 15 -10 26 -10 10 0 27 -4 37 -9
29 -14 87 -31 110 -31 11 0 24 -4 27 -10 3 -5 17 -10 30 -10 13 0 27 -4 30
-10 3 -6 16 -10 28 -10 12 -1 32 -7 45 -14 l23 -12 -1 -2302 -1 -2302 491 0
490 0 0 2440 0 2439 -43 29 c-47 32 -116 60 -222 92 -38 12 -113 34 -165 50
-52 16 -149 45 -215 65 -66 20 -172 52 -235 71 -173 52 -418 126 -610 183 -52
16 -142 43 -200 60 -58 18 -150 45 -205 62 -55 17 -143 43 -195 59 -89 27
-155 47 -405 121 -55 17 -158 48 -230 70 -71 22 -173 52 -225 68 -196 59 -298
89 -400 120 -58 18 -150 45 -205 62 -55 17 -145 44 -200 60 -171 51 -299 90
-325 99 -14 4 -59 18 -100 30 -41 12 -86 25 -100 30 -14 4 -59 18 -100 30 -41
12 -86 25 -100 30 -14 4 -59 18 -100 30 -41 12 -88 26 -105 31 -56 17 -220 67
-320 97 -55 16 -134 40 -175 53 -96 29 -281 31 -375 4 -33 -9 -73 -20 -90 -25
-16 -4 -50 -14 -75 -22 -25 -8 -65 -21 -90 -28 -25 -7 -70 -21 -100 -30 -30
-10 -89 -27 -130 -39 -41 -13 -86 -26 -100 -31 -14 -4 -59 -18 -100 -30 -41
-12 -86 -25 -100 -30 -14 -4 -59 -18 -100 -30 -41 -12 -86 -25 -100 -30 -14
-4 -59 -18 -100 -30 -41 -12 -100 -30 -130 -40 -31 -9 -70 -21 -88 -24 l-32
-8 -3 2764 c-2 1520 -7 2779 -11 2798 -4 19 -11 44 -16 55 -4 11 -14 36 -21
55 -16 44 -71 129 -101 157 -13 11 -41 32 -63 45 l-40 23 -2470 2 c-2046 2
-2476 0 -2508 -11z"/>
</g>
</svg>
