<svg width="20" height="20" viewBox="0 0 20 20" fill="none" xmlns="http://www.w3.org/2000/svg">
    <path fill-rule="evenodd" clip-rule="evenodd" d="M15.8337 2.74713C15.6473 2.74713 15.4627 2.78385 15.2905 2.85519C15.1182 2.92652 14.9617 3.03109 14.8299 3.1629L3.75597 14.2369L3.00316 16.9972L5.76348 16.2444L16.8374 5.17041C16.9693 5.03859 17.0738 4.8821 17.1451 4.70988C17.2165 4.53766 17.2532 4.35307 17.2532 4.16665C17.2532 3.98024 17.2165 3.79565 17.1451 3.62343C17.0738 3.4512 16.9693 3.29472 16.8374 3.1629C16.7056 3.03109 16.5491 2.92652 16.3769 2.85519C16.2047 2.78385 16.0201 2.74713 15.8337 2.74713ZM14.5729 1.12291C14.9726 0.957346 15.401 0.872131 15.8337 0.872131C16.2663 0.872131 16.6947 0.957346 17.0944 1.12291C17.4942 1.28848 17.8573 1.53115 18.1633 1.83707C18.4692 2.143 18.7119 2.50618 18.8774 2.90589C19.043 3.30561 19.1282 3.73401 19.1282 4.16665C19.1282 4.59929 19.043 5.0277 18.8774 5.42741C18.7119 5.82712 18.4692 6.19031 18.1633 6.49623L6.91326 17.7462C6.7979 17.8616 6.65442 17.9449 6.49702 17.9878L1.91369 19.2378C1.58911 19.3263 1.24199 19.2341 1.0041 18.9962C0.766211 18.7583 0.674028 18.4112 0.762548 18.0866L2.01255 13.5033C2.05548 13.3459 2.13874 13.2024 2.2541 13.0871L13.5041 1.83707C13.81 1.53115 14.1732 1.28848 14.5729 1.12291Z" fill="#284C9A"/>
    </svg>
    