<svg width="20" height="20" viewBox="0 0 20 20" fill="none" xmlns="http://www.w3.org/2000/svg">
<path fill-rule="evenodd" clip-rule="evenodd" d="M15.8337 2.74719C15.6473 2.74719 15.4627 2.78391 15.2905 2.85525C15.1182 2.92658 14.9617 3.03115 14.8299 3.16296L3.75597 14.2369L3.00316 16.9972L5.76348 16.2444L16.8374 5.17047C16.9693 5.03865 17.0738 4.88217 17.1451 4.70994C17.2165 4.53772 17.2532 4.35313 17.2532 4.16671C17.2532 3.9803 17.2165 3.79571 17.1451 3.62349C17.0738 3.45126 16.9693 3.29478 16.8374 3.16296C16.7056 3.03115 16.5491 2.92658 16.3769 2.85525C16.2047 2.78391 16.0201 2.74719 15.8337 2.74719ZM14.5729 1.12297C14.9726 0.957407 15.401 0.872192 15.8337 0.872192C16.2663 0.872192 16.6947 0.957407 17.0944 1.12297C17.4942 1.28854 17.8573 1.53121 18.1633 1.83714C18.4692 2.14306 18.7119 2.50624 18.8774 2.90596C19.043 3.30567 19.1282 3.73407 19.1282 4.16671C19.1282 4.59935 19.043 5.02776 18.8774 5.42747C18.7119 5.82718 18.4692 6.19037 18.1633 6.49629L6.91326 17.7463C6.7979 17.8617 6.65442 17.9449 6.49702 17.9878L1.91369 19.2378C1.58911 19.3264 1.24199 19.2342 1.0041 18.9963C0.766211 18.7584 0.674028 18.4113 0.762548 18.0867L2.01255 13.5034C2.05548 13.346 2.13874 13.2025 2.2541 13.0871L13.5041 1.83714C13.81 1.53121 14.1732 1.28854 14.5729 1.12297Z" fill="#284C9A"/>
</svg>
