<svg width="1465" height="331" viewBox="0 0 1465 331" fill="none" xmlns="http://www.w3.org/2000/svg">
<g clip-path="url(#clip0_22_274)">
<path d="M433.4 256.9H353.7V120.7H383.9V232H433.5V256.9H433.4Z" fill="#13622D"/>
<path d="M483.6 256.9C467.7 256.9 455.1 252.4 446 243.5C436.9 234.6 432.3 222.5 432.3 207.1C432.3 191.3 437 178.9 446.5 170C456 161.1 468.7 156.6 484.9 156.6C500.8 156.6 513.2 161.1 522.2 170C531.2 178.9 535.7 190.7 535.7 205.4C535.7 221.3 531 233.8 521.7 243C512.5 252.3 499.8 256.9 483.6 256.9ZM484.3 179.2C477.3 179.2 471.9 181.6 468.1 186.4C464.2 191.2 462.3 198 462.3 206.7C462.3 225.1 469.7 234.2 484.5 234.2C498.6 234.2 505.7 224.8 505.7 205.9C505.7 188.1 498.6 179.2 484.3 179.2Z" fill="#13622D"/>
<path d="M538.1 252V228.1C543 231 547.8 233.2 552.6 234.6C557.4 236 562 236.7 566.3 236.7C571.5 236.7 575.6 236 578.7 234.6C581.7 233.2 583.2 231 583.2 228.1C583.2 226.2 582.5 224.7 581.1 223.4C579.7 222.2 578 221.1 575.8 220.1C573.7 219.2 571.3 218.3 568.8 217.6C566.2 216.9 563.8 216 561.4 215.1C557.6 213.7 554.3 212.1 551.4 210.5C548.5 208.9 546.1 206.9 544.1 204.8C542.1 202.6 540.6 200.1 539.6 197.2C538.6 194.3 538.1 190.9 538.1 187C538.1 181.6 539.3 177 541.6 173.2C543.9 169.3 547 166.2 550.9 163.7C554.8 161.2 559.2 159.4 564.2 158.3C569.2 157.1 574.4 156.6 579.8 156.6C584 156.6 588.3 156.9 592.7 157.6C597.1 158.3 601.3 159.2 605.6 160.4V183.2C601.9 181 597.9 179.4 593.6 178.3C589.3 177.2 585.2 176.7 581 176.7C579.1 176.7 577.2 176.9 575.5 177.2C573.8 177.5 572.3 178 571 178.7C569.7 179.4 568.7 180.2 567.9 181.2C567.2 182.2 566.8 183.4 566.8 184.7C566.8 186.4 567.4 187.9 568.5 189.2C569.6 190.4 571.1 191.5 572.9 192.4C574.7 193.3 576.7 194.1 578.9 194.8C581.1 195.5 583.3 196.2 585.5 197C589.4 198.4 593 199.9 596.1 201.5C599.3 203.1 602 205 604.3 207.2C606.6 209.4 608.3 211.9 609.5 214.9C610.7 217.8 611.3 221.3 611.3 225.4C611.3 231.1 610.1 235.9 607.6 239.9C605.1 243.9 601.9 247.2 597.8 249.7C593.7 252.2 589 254.1 583.7 255.2C578.4 256.4 572.9 256.9 567.1 256.9C556.8 256.9 547.1 255.3 538.1 252Z" fill="#13622D"/>
<path d="M745.1 256.9H664.8V120.7H742V145.7H695V176H738.8V200.9H695V232H745.1V256.9Z" fill="#13622D"/>
<path d="M844 254.6H814.6V240H814.1C806.8 251.3 797.1 256.9 784.9 256.9C762.7 256.9 751.7 243.5 751.7 216.7V159H781.1V214C781.1 227.5 786.5 234.3 797.2 234.3C802.5 234.3 806.7 232.5 809.9 228.7C813.1 225 814.7 220 814.7 213.6V159H844V254.6Z" fill="#13622D"/>
<path d="M930.8 251.1C924.1 255 914.5 256.9 902 256.9C887.3 256.9 875.4 252.5 866.3 243.6C857.2 234.7 852.7 223.2 852.7 209.2C852.7 193 857.6 180.2 867.3 170.8C877 161.4 890.1 156.8 906.4 156.8C917.7 156.8 925.8 158.3 930.9 161.3V186.3C924.7 181.7 917.9 179.4 910.3 179.4C901.8 179.4 895.1 181.9 890.2 186.8C885.3 191.7 882.8 198.6 882.8 207.3C882.8 215.8 885.2 222.4 889.9 227.2C894.6 232 901.1 234.4 909.4 234.4C916.7 234.4 923.9 232.1 931 227.5V251.1H930.8Z" fill="#13622D"/>
<path d="M1019.2 254.6H991.3V240.9H990.9C984.5 251.6 975 257 962.4 257C953.1 257 945.8 254.4 940.5 249.1C935.2 243.8 932.5 236.8 932.5 228.1C932.5 209.6 943.5 198.9 965.5 196L991.5 192.5C991.5 182 985.8 176.8 974.5 176.8C963.1 176.8 952.3 180.2 942 187V164.8C946.1 162.7 951.7 160.8 958.9 159.2C966 157.6 972.5 156.8 978.4 156.8C1005.7 156.8 1019.3 170.4 1019.3 197.6V254.6H1019.2ZM991.5 215.7V209.3L974.1 211.5C964.5 212.7 959.7 217.1 959.7 224.5C959.7 227.9 960.9 230.6 963.2 232.8C965.5 234.9 968.7 236 972.7 236C978.2 236 982.8 234.1 986.2 230.3C989.7 226.4 991.5 221.6 991.5 215.7Z" fill="#13622D"/>
<path d="M1061.4 256.9H1031.9V120.5H1061.4V256.9Z" fill="#13622D"/>
<path d="M1090.7 151.2C1085.7 151.2 1081.6 149.7 1078.5 146.8C1075.3 143.8 1073.7 140.2 1073.7 135.9C1073.7 131.5 1075.3 127.9 1078.5 125.1C1081.7 122.3 1085.7 120.9 1090.7 120.9C1095.7 120.9 1099.8 122.3 1103 125.1C1106.1 127.9 1107.7 131.5 1107.7 135.9C1107.7 140.4 1106.1 144.1 1103 146.9C1099.8 149.7 1095.7 151.2 1090.7 151.2ZM1105.2 256.9H1075.7V166.3H1105.2V256.9Z" fill="#13622D"/>
<path d="M1149.4 243.4H1149V298.5H1119.5V159H1149V173.4H1149.4C1156.7 162.3 1166.9 156.7 1180.1 156.7C1192.5 156.7 1202 160.9 1208.8 169.4C1215.6 177.9 1218.9 189.5 1218.9 204.1C1218.9 220 1215 232.8 1207.1 242.5C1199.2 252.1 1188.8 257 1175.7 257C1164.2 256.9 1155.5 252.4 1149.4 243.4ZM1148.6 204.2V211.9C1148.6 218.5 1150.3 223.9 1153.8 228.1C1157.3 232.3 1161.9 234.4 1167.5 234.4C1174.2 234.4 1179.4 231.8 1183.1 226.6C1186.8 221.4 1188.7 214 1188.7 204.5C1188.7 187.7 1182.2 179.3 1169.1 179.3C1163.1 179.3 1158.1 181.6 1154.3 186.2C1150.5 190.7 1148.6 196.7 1148.6 204.2Z" fill="#13622D"/>
<path d="M1285.4 253.4C1281 255.7 1274.5 256.9 1265.7 256.9C1244.9 256.9 1234.5 246.1 1234.5 224.5V171.6H1219V149.8H1234.5V129.2L1263.9 120.8V149.8H1285.4V171.6H1263.9V219.4C1263.9 229.4 1267.9 234.3 1275.8 234.3C1278.9 234.3 1282.1 233.4 1285.4 231.6V253.4Z" fill="#13622D"/>
<path d="M1337 256.9C1321.1 256.9 1308.5 252.4 1299.4 243.5C1290.3 234.6 1285.7 222.5 1285.7 207.1C1285.7 191.3 1290.4 178.9 1299.9 170C1309.4 161.1 1322.1 156.6 1338.3 156.6C1354.2 156.6 1366.6 161.1 1375.6 170C1384.6 178.9 1389.1 190.7 1389.1 205.4C1389.1 221.3 1384.4 233.8 1375.1 243C1366 252.3 1353.2 256.9 1337 256.9ZM1337.8 179.2C1330.8 179.2 1325.4 181.6 1321.6 186.4C1317.7 191.2 1315.8 198 1315.8 206.7C1315.8 225.1 1323.2 234.2 1338 234.2C1352.1 234.2 1359.2 224.8 1359.2 205.9C1359.2 188.1 1352 179.2 1337.8 179.2Z" fill="#13622D"/>
<path d="M1391.6 252V228.1C1396.5 231 1401.3 233.2 1406.1 234.6C1410.9 236 1415.5 236.7 1419.8 236.7C1425 236.7 1429.1 236 1432.2 234.6C1435.2 233.2 1436.7 231 1436.7 228.1C1436.7 226.2 1436 224.7 1434.6 223.4C1433.2 222.2 1431.5 221.1 1429.3 220.1C1427.2 219.2 1424.8 218.3 1422.3 217.6C1419.7 216.9 1417.3 216 1414.9 215.1C1411.1 213.7 1407.8 212.1 1404.9 210.5C1402 208.9 1399.6 206.9 1397.6 204.8C1395.6 202.6 1394.1 200.1 1393.1 197.2C1392.1 194.3 1391.6 190.9 1391.6 187C1391.6 181.6 1392.8 177 1395.1 173.2C1397.4 169.3 1400.5 166.2 1404.4 163.7C1408.3 161.2 1412.7 159.4 1417.7 158.3C1422.7 157.1 1427.9 156.6 1433.3 156.6C1437.5 156.6 1441.8 156.9 1446.2 157.6C1450.6 158.3 1454.8 159.2 1459.1 160.4V183.2C1455.4 181 1451.4 179.4 1447.1 178.3C1442.8 177.2 1438.7 176.7 1434.5 176.7C1432.6 176.7 1430.7 176.9 1429 177.2C1427.3 177.5 1425.8 178 1424.5 178.7C1423.2 179.4 1422.2 180.2 1421.4 181.2C1420.7 182.2 1420.3 183.4 1420.3 184.7C1420.3 186.4 1420.9 187.9 1422 189.2C1423.1 190.4 1424.6 191.5 1426.4 192.4C1428.2 193.3 1430.2 194.1 1432.4 194.8C1434.6 195.5 1436.8 196.2 1439 197C1442.9 198.4 1446.5 199.9 1449.6 201.5C1452.8 203.1 1455.5 205 1457.8 207.2C1460.1 209.4 1461.8 211.9 1463 214.9C1464.2 217.8 1464.8 221.3 1464.8 225.4C1464.8 231.1 1463.6 235.9 1461.1 239.9C1458.6 243.9 1455.4 247.2 1451.3 249.7C1447.2 252.2 1442.5 254.1 1437.2 255.2C1431.9 256.4 1426.4 256.9 1420.6 256.9C1410.3 256.9 1400.5 255.3 1391.6 252Z" fill="#13622D"/>
<path d="M691.9 304.5C691.2 306.1 690.1 307.4 688.8 308.4C687.5 309.5 686 310.2 684.2 310.8C682.5 311.3 680.6 311.6 678.6 311.6H672.6V322.3H664.8V286.6H679.4C681.5 286.6 683.4 286.9 685.1 287.5C686.8 288.1 688.2 288.9 689.4 290C690.6 291.1 691.5 292.4 692.1 293.9C692.7 295.4 693 297.1 693 298.9V299C693 301.1 692.6 302.9 691.9 304.5ZM685 299.1C685 297.3 684.4 296 683.3 295.1C682.2 294.2 680.6 293.7 678.6 293.7H672.5V304.6H678.7C680.7 304.6 682.2 304.1 683.3 303C684.4 302 684.9 300.7 684.9 299.2V299.1H685Z" fill="#010202"/>
<path d="M714 322.3V319.3C713 320.4 711.9 321.2 710.6 321.8C709.3 322.4 707.7 322.7 705.8 322.7C704.5 322.7 703.3 322.5 702.2 322.2C701.1 321.8 700.1 321.3 699.2 320.6C698.4 319.9 697.7 319 697.2 318C696.7 317 696.5 315.8 696.5 314.4V314.3C696.5 312.8 696.8 311.5 697.3 310.4C697.8 309.3 698.6 308.4 699.6 307.7C700.6 307 701.7 306.5 703.1 306.1C704.4 305.7 705.9 305.6 707.6 305.6C709 305.6 710.2 305.7 711.2 305.9C712.2 306.1 713.2 306.4 714.2 306.7V306.2C714.2 304.6 713.7 303.3 712.7 302.5C711.7 301.7 710.3 301.2 708.3 301.2C706.8 301.2 705.5 301.3 704.4 301.6C703.3 301.9 702.1 302.2 700.8 302.7L698.9 296.8C700.4 296.2 702 295.6 703.6 295.2C705.2 294.8 707.2 294.6 709.5 294.6C713.7 294.6 716.8 295.6 718.8 297.7C720.7 299.8 721.7 302.7 721.7 306.4V322.2H714V322.3ZM714.1 311.3C713.4 311 712.7 310.7 711.8 310.6C711 310.4 710.1 310.3 709.1 310.3C707.4 310.3 706.1 310.6 705.2 311.3C704.2 311.9 703.8 312.9 703.8 314.1V314.2C703.8 315.3 704.2 316.1 705 316.6C705.8 317.2 706.8 317.5 708.1 317.5C709.9 317.5 711.4 317.1 712.5 316.2C713.6 315.3 714.2 314.2 714.2 312.7V311.3H714.1Z" fill="#010202"/>
<path d="M744.2 302.5C741.6 302.5 739.6 303.3 738.1 304.8C736.6 306.4 735.9 308.8 735.9 312.1V322.2H728.2V295H735.9V300.5C736.7 298.6 737.8 297.1 739.1 296C740.5 294.9 742.3 294.4 744.6 294.5V302.6H744.2V302.5Z" fill="#010202"/>
<path d="M769.1 330.4V318.4C768.1 319.7 767 320.7 765.7 321.6C764.4 322.4 762.7 322.8 760.6 322.8C759 322.8 757.5 322.5 756 321.9C754.5 321.3 753.2 320.4 752 319.2C750.8 318 749.9 316.5 749.2 314.8C748.5 313.1 748.2 311 748.2 308.8V308.7C748.2 306.4 748.5 304.4 749.2 302.7C749.9 301 750.8 299.5 752 298.3C753.2 297.1 754.5 296.2 755.9 295.6C757.4 295 759 294.7 760.6 294.7C762.7 294.7 764.4 295.1 765.7 295.9C767 296.7 768.2 297.7 769.1 298.7V295H776.8V330.4H769.1ZM769.2 308.6C769.2 307.5 769 306.4 768.7 305.5C768.3 304.6 767.9 303.8 767.3 303.1C766.7 302.4 766 301.9 765.2 301.6C764.4 301.2 763.5 301.1 762.6 301.1C761.7 301.1 760.8 301.3 760 301.6C759.2 302 758.5 302.5 757.9 303.1C757.3 303.8 756.8 304.6 756.4 305.5C756 306.4 755.9 307.5 755.9 308.6V308.7C755.9 309.8 756.1 310.9 756.4 311.8C756.8 312.7 757.2 313.5 757.9 314.2C758.5 314.9 759.2 315.4 760 315.7C760.8 316.1 761.7 316.2 762.6 316.2C763.5 316.2 764.4 316 765.2 315.7C766 315.3 766.7 314.8 767.3 314.2C767.9 313.5 768.4 312.7 768.7 311.8C769.1 310.9 769.2 309.8 769.2 308.7V308.6Z" fill="#010202"/>
<path d="M800.9 322.3V318.4C800.5 319 800 319.5 799.4 320.1C798.9 320.6 798.3 321.1 797.6 321.5C797 321.9 796.2 322.2 795.5 322.5C794.7 322.7 793.8 322.9 792.9 322.9C789.9 322.9 787.7 322 786.1 320.2C784.5 318.4 783.7 315.9 783.7 312.8V295H791.4V310.2C791.4 312 791.8 313.4 792.6 314.3C793.4 315.2 794.6 315.7 796.1 315.7C797.6 315.7 798.8 315.2 799.6 314.3C800.5 313.4 800.9 312 800.9 310.2V295H808.6V322.3H800.9Z" fill="#010202"/>
<path d="M841 310.3C841 310.6 841 310.9 840.9 311.3H821.9C822.3 313.1 823 314.4 824.2 315.3C825.4 316.2 826.8 316.6 828.6 316.6C829.9 316.6 831 316.4 832.1 315.9C833.1 315.5 834.2 314.7 835.3 313.8L839.7 317.7C838.4 319.3 836.8 320.5 835 321.4C833.2 322.3 831 322.7 828.5 322.7C826.5 322.7 824.6 322.4 822.8 321.7C821.1 321 819.5 320.1 818.3 318.8C817 317.5 816 316.1 815.3 314.3C814.6 312.6 814.2 310.7 814.2 308.6V308.5C814.2 306.6 814.5 304.7 815.2 303C815.9 301.3 816.8 299.8 818 298.5C819.2 297.2 820.6 296.2 822.3 295.4C823.9 294.7 825.8 294.3 827.8 294.3C830.1 294.3 832 294.7 833.7 295.5C835.4 296.3 836.7 297.4 837.9 298.8C839 300.2 839.8 301.8 840.3 303.5C840.8 305.3 841.1 307.1 841.1 309.1V309.2C841 309.7 841 310.1 841 310.3ZM831.6 302.3C830.6 301.2 829.3 300.7 827.7 300.7C826.1 300.7 824.8 301.2 823.8 302.3C822.8 303.4 822.1 304.8 821.8 306.5H833.5C833.2 304.7 832.6 303.3 831.6 302.3Z" fill="#010202"/>
<path d="M863.2 322.3V286.6H871V322.3H863.2Z" fill="#010202"/>
<path d="M896.4 322.3V307.1C896.4 305.3 896 303.9 895.2 303C894.4 302.1 893.2 301.6 891.7 301.6C890.2 301.6 889 302.1 888.2 303C887.3 303.9 886.9 305.3 886.9 307.1V322.3H879.2V295H886.9V298.9C887.3 298.3 887.8 297.8 888.4 297.2C888.9 296.7 889.5 296.2 890.2 295.8C890.8 295.4 891.6 295.1 892.3 294.8C893.1 294.6 894 294.4 894.9 294.4C897.9 294.4 900.1 295.3 901.7 297.1C903.3 298.9 904.1 301.4 904.1 304.5V322.2H896.4V322.3Z" fill="#010202"/>
<path d="M930.6 322.3V318.4C929.6 319.7 928.5 320.7 927.2 321.6C925.9 322.4 924.2 322.8 922.1 322.8C920.5 322.8 919 322.5 917.5 321.9C916 321.3 914.7 320.4 913.5 319.2C912.3 318 911.4 316.5 910.7 314.8C910 313.1 909.7 311 909.7 308.8V308.7C909.7 306.4 910 304.4 910.7 302.7C911.4 301 912.3 299.5 913.5 298.3C914.6 297.1 916 296.2 917.4 295.6C918.9 295 920.5 294.7 922.1 294.7C924.2 294.7 925.9 295.1 927.2 295.9C928.5 296.7 929.7 297.7 930.6 298.7V285.3H938.3V322.5H930.6V322.3ZM930.7 308.6C930.7 307.5 930.5 306.4 930.2 305.5C929.8 304.6 929.4 303.8 928.8 303.1C928.2 302.4 927.5 301.9 926.7 301.6C925.9 301.2 925 301.1 924.1 301.1C923.2 301.1 922.3 301.3 921.5 301.6C920.7 302 920 302.5 919.4 303.1C918.8 303.8 918.3 304.6 917.9 305.5C917.5 306.4 917.4 307.5 917.4 308.6V308.7C917.4 309.8 917.6 310.9 917.9 311.8C918.3 312.7 918.7 313.5 919.4 314.2C920 314.9 920.7 315.4 921.5 315.7C922.3 316.1 923.2 316.2 924.1 316.2C925 316.2 925.9 316 926.7 315.7C927.5 315.3 928.2 314.8 928.8 314.2C929.4 313.5 929.9 312.7 930.2 311.8C930.6 310.9 930.7 309.8 930.7 308.7V308.6Z" fill="#010202"/>
<path d="M962.3 322.3V318.4C961.9 319 961.4 319.5 960.8 320.1C960.3 320.6 959.7 321.1 959 321.5C958.4 321.9 957.6 322.2 956.9 322.5C956.1 322.7 955.2 322.9 954.3 322.9C951.3 322.9 949.1 322 947.4 320.2C945.8 318.4 945 315.9 945 312.8V295H952.7V310.2C952.7 312 953.1 313.4 953.9 314.3C954.7 315.2 955.9 315.7 957.4 315.7C958.9 315.7 960.1 315.2 960.9 314.3C961.8 313.4 962.2 312 962.2 310.2V295H969.9V322.3H962.3Z" fill="#010202"/>
<path d="M996.2 317.9C995.7 319 994.9 319.9 994 320.6C993 321.3 991.9 321.8 990.7 322.2C989.4 322.6 988.1 322.7 986.6 322.7C984.7 322.7 982.7 322.4 980.7 321.7C978.7 321 976.8 320 974.9 318.6L978.2 313.5C979.7 314.6 981.2 315.4 982.7 315.9C984.2 316.4 985.6 316.7 986.9 316.7C988 316.7 988.8 316.5 989.4 316.1C989.9 315.7 990.2 315.2 990.2 314.6V314.5C990.2 314.1 990 313.7 989.7 313.4C989.4 313.1 989 312.8 988.5 312.6C988 312.4 987.4 312.2 986.7 312C986 311.8 985.3 311.6 984.6 311.3C983.6 311 982.7 310.7 981.7 310.3C980.7 309.9 979.9 309.4 979.1 308.8C978.3 308.2 977.7 307.4 977.2 306.5C976.7 305.6 976.5 304.5 976.5 303.1V303C976.5 301.6 976.8 300.4 977.3 299.3C977.8 298.2 978.5 297.3 979.4 296.6C980.3 295.9 981.4 295.3 982.6 294.9C983.8 294.5 985.1 294.3 986.5 294.3C988.2 294.3 990 294.6 991.8 295.1C993.6 295.7 995.2 296.4 996.7 297.4L993.7 302.7C992.3 301.9 991 301.3 989.7 300.8C988.4 300.3 987.3 300.1 986.3 300.1C985.3 300.1 984.6 300.3 984.2 300.6C983.7 301 983.5 301.4 983.5 301.9V302C983.5 302.4 983.7 302.7 984 303C984.3 303.3 984.7 303.6 985.2 303.8C985.7 304.1 986.3 304.3 987 304.5C987.7 304.7 988.4 305 989.1 305.2C990 305.5 991 305.9 992 306.3C993 306.7 993.9 307.2 994.6 307.9C995.4 308.5 996 309.3 996.5 310.1C997 311 997.3 312.1 997.3 313.3V313.4C997 315.5 996.7 316.8 996.2 317.9Z" fill="#010202"/>
<path d="M1015.2 322.3C1014.2 322.6 1013.1 322.7 1011.8 322.7C1010.6 322.7 1009.5 322.6 1008.6 322.3C1007.6 322 1006.8 321.6 1006.1 321C1005.4 320.4 1004.9 319.5 1004.5 318.5C1004.1 317.5 1003.9 316.1 1003.9 314.6V301.7H1000.6V295H1003.9V288H1011.6V295H1018V301.6H1011.6V313.3C1011.6 315.1 1012.4 315.9 1014.1 315.9C1015.5 315.9 1016.7 315.6 1017.9 314.9V321.1C1017.1 321.6 1016.2 322 1015.2 322.3Z" fill="#010202"/>
<path d="M1039.7 302.5C1037.1 302.5 1035.1 303.3 1033.6 304.8C1032.1 306.4 1031.4 308.8 1031.4 312.1V322.2H1023.7V295H1031.4V300.5C1032.2 298.6 1033.3 297.1 1034.6 296C1036 294.9 1037.8 294.4 1040.1 294.5V302.6H1039.7V302.5Z" fill="#010202"/>
<path d="M1045.1 292V285.1H1053.2V292H1045.1ZM1045.3 322.3V295H1053V322.3H1045.3Z" fill="#010202"/>
<path d="M1076.3 322.3V319.3C1075.3 320.4 1074.2 321.2 1072.9 321.8C1071.6 322.4 1070 322.7 1068.1 322.7C1066.8 322.7 1065.6 322.5 1064.5 322.2C1063.4 321.8 1062.4 321.3 1061.5 320.6C1060.7 319.9 1060 319 1059.5 318C1059 317 1058.8 315.8 1058.8 314.4V314.3C1058.8 312.8 1059.1 311.5 1059.6 310.4C1060.1 309.3 1060.9 308.4 1061.9 307.7C1062.9 307 1064 306.5 1065.4 306.1C1066.7 305.7 1068.2 305.6 1069.9 305.6C1071.3 305.6 1072.5 305.7 1073.5 305.9C1074.5 306.1 1075.5 306.4 1076.5 306.7V306.2C1076.5 304.6 1076 303.3 1075 302.5C1074 301.7 1072.6 301.2 1070.6 301.2C1069.1 301.2 1067.8 301.3 1066.7 301.6C1065.6 301.9 1064.4 302.2 1063.1 302.7L1061.2 296.8C1062.7 296.2 1064.3 295.6 1065.9 295.2C1067.5 294.8 1069.5 294.6 1071.8 294.6C1076 294.6 1079.1 295.6 1081.1 297.7C1083 299.8 1084 302.7 1084 306.4V322.2H1076.3V322.3ZM1076.5 311.3C1075.8 311 1075.1 310.7 1074.2 310.6C1073.4 310.4 1072.5 310.3 1071.5 310.3C1069.8 310.3 1068.5 310.6 1067.6 311.3C1066.6 311.9 1066.2 312.9 1066.2 314.1V314.2C1066.2 315.3 1066.6 316.1 1067.4 316.6C1068.2 317.2 1069.2 317.5 1070.5 317.5C1072.3 317.5 1073.8 317.1 1074.9 316.2C1076 315.3 1076.6 314.2 1076.6 312.7V311.3H1076.5Z" fill="#010202"/>
<path d="M1090.9 322.3V285.1H1098.6V322.3H1090.9Z" fill="#010202"/>
<path d="M102.2 110.8L130.2 103.3V0H0V256.9H28V28H102.2V110.8Z" fill="#304B9A"/>
<path d="M102.2 159.2V256.9H130.2V151.6L102.2 159.2Z" fill="#304B9A"/>
<path d="M74.4999 256.9H55.8999V137.8L184 103.3L311.7 137.8V256.8H293.1V152.1L184 122.6L74.4999 152.1V256.9Z" fill="#304B9A"/>
</g>
<defs>
<clipPath id="clip0_22_274">
<rect width="1465" height="330.4" fill="white"/>
</clipPath>
</defs>
</svg>
