<?xml version="1.0" encoding="UTF-8"?> <svg xmlns="http://www.w3.org/2000/svg" xmlns:xlink="http://www.w3.org/1999/xlink" xmlns:xodm="http://www.corel.com/coreldraw/odm/2003" xml:space="preserve" width="148px" height="33px" version="1.0" style="shape-rendering:geometricPrecision; text-rendering:geometricPrecision; image-rendering:optimizeQuality; fill-rule:evenodd; clip-rule:evenodd" viewBox="0 0 4551000 1015000"> <defs> <style type="text/css"> .fil0 {fill:none} .fil3 {fill:#2391CE;fill-rule:nonzero} .fil8 {fill:#3159A9;fill-rule:nonzero} .fil6 {fill:#3E4546;fill-rule:nonzero} .fil4 {fill:#6699FF;fill-rule:nonzero} .fil9 {fill:gray;fill-rule:nonzero} .fil7 {fill:#90A6B4;fill-rule:nonzero} .fil10 {fill:#B3B3B3;fill-rule:nonzero} .fil11 {fill:#ED3237;fill-rule:nonzero} .fil12 {fill:red;fill-rule:nonzero} .fil1 {fill:url(#id2)} .fil2 {fill:url(#id3)} .fil5 {fill:url(#id4)} </style> <mask id="id0"> <linearGradient id="id1" gradientUnits="userSpaceOnUse" x1="542000" y1="533000" x2="1167000" y2="658000"> <stop offset="0" style="stop-opacity:1; stop-color:white"></stop> <stop offset="1" style="stop-opacity:0; stop-color:white"></stop> </linearGradient> <rect style="fill:url(#id1)" x="467000" y="31000" width="959000" height="972000"></rect> </mask> <linearGradient id="id2" gradientUnits="userSpaceOnUse" x1="2142000" y1="759000" x2="2135000" y2="96000"> <stop offset="0" style="stop-opacity:1; stop-color:#101010"></stop> <stop offset="1" style="stop-opacity:1; stop-color:#8B8B8B"></stop> </linearGradient> <linearGradient id="id3" gradientUnits="userSpaceOnUse" x1="3393000" y1="761000" x2="3420000" y2="91000"> <stop offset="0" style="stop-opacity:1; stop-color:#3354A5"></stop> <stop offset="1" style="stop-opacity:1; stop-color:#06B6EF"></stop> </linearGradient> <linearGradient id="id4" gradientUnits="userSpaceOnUse" x1="262000" y1="573000" x2="1606000" y2="573000"> <stop offset="0" style="stop-opacity:1; stop-color:#0E74BC"></stop> <stop offset="1" style="stop-opacity:1; stop-color:#55AAF1"></stop> </linearGradient> </defs> <g id="Capa_x0020_1"> <metadata id="CorelCorpID_0Corel-Layer"></metadata> <polygon class="fil0" points="0,0 4551000,0 4551000,1015000 0,1015000 "></polygon> <g id="_2884068084608"> <path class="fil1" d="M1781000 346000l578000 1000c17000,-26000 23000,-45000 15000,-61000l-568000 -5000c13000,-99000 48000,-165000 112000,-185000l651000 0c31000,3000 48000,25000 40000,83000l-78000 286000c-39000,73000 -61000,78000 -82000,79000l-521000 -5000 -65000 218000 -197000 2000 115000 -413000z"></path> <path class="fil2" d="M2845000 286000l576000 1000 46000 -142000c10000,-34000 3000,-52000 -23000,-53000l-691000 2000c-44000,21000 -71000,55000 -85000,102000l-138000 455000c-11000,35000 -5000,71000 15000,107000l1536000 2000c37000,-22000 60000,-42000 64000,-90000l77000 -254000c2000,-33000 -10000,-65000 -39000,-93000l-512000 0 20000 -37000 573000 1000 25000 -138000c1000,-28000 -12000,-43000 -29000,-53000l-662000 2000c-43000,11000 -72000,35000 -85000,72000l-59000 219000c-23000,48000 -19000,93000 25000,131000l512000 0 -21000 56000 -1215000 2000 90000 -292000z"></path> <g> <path class="fil3" style="mask:url(#id0)" d="M481000 517000c0,77000 18000,149000 51000,213000 170000,50000 485000,8000 802000,-120000 26000,-11000 50000,-21000 74000,-32000 3000,-20000 4000,-40000 4000,-61000 0,-261000 -208000,-472000 -465000,-472000 -257000,0 -466000,211000 -466000,472000zm185000 377000c78000,59000 176000,95000 281000,95000 219000,0 403000,-154000 452000,-360000 -62000,38000 -129000,74000 -202000,108000 -187000,87000 -374000,140000 -531000,157000z"></path> <path class="fil4" d="M1411000 552000c1000,-12000 1000,-23000 1000,-35000 0,-4000 0,-8000 0,-11000 0,-1000 0,-1000 0,-2000 0,0 0,0 0,-1000 0,-6000 -1000,-13000 -1000,-20000 0,-1000 0,-2000 0,-2000 0,-1000 0,-2000 0,-3000 -3000,-28000 -7000,-55000 -14000,-81000 0,1000 0,1000 1000,2000 -1000,-2000 -2000,-4000 -2000,-7000 0,2000 1000,3000 1000,5000 -3000,-12000 -6000,-23000 -10000,-34000 1000,2000 2000,5000 2000,8000l0 0 0 0c-2000,-8000 -5000,-16000 -8000,-23000 0,-1000 0,-2000 -1000,-2000 0,-2000 -1000,-4000 -2000,-6000 0,1000 1000,1000 1000,2000 -4000,-9000 -8000,-17000 -12000,-26000l-1000 -2000 -3000 -8000c3000,7000 7000,14000 10000,21000 -1000,-2000 -2000,-4000 -2000,-6000 -5000,-9000 -9000,-18000 -14000,-28000 0,0 -1000,-1000 -1000,-2000 -9000,-15000 -15000,-25000 -20000,-34000 -1000,-1000 -2000,-2000 -3000,-3000 0,-1000 -1000,-2000 -1000,-3000 -3000,-4000 -6000,-8000 -9000,-12000 -4000,-5000 -8000,-11000 -15000,-19000l0 -1000c-2000,-2000 -3000,-4000 -5000,-6000 0,0 0,0 0,-1000 1000,3000 3000,5000 5000,7000l-1000 0 1000 1000c-4000,-3000 -7000,-7000 -10000,-11000 -1000,-1000 -2000,-3000 -2000,-4000l8000 10000 -4000 -5000 0 0 -4000 -5000c1000,1000 3000,3000 4000,5000 0,0 0,-1000 0,-1000l-8000 -9000c0,0 0,0 0,1000 1000,0 1000,0 1000,1000 -1000,-1000 -2000,-3000 -3000,-4000 -1000,-1000 -1000,-2000 -2000,-2000 0,0 0,0 0,-1000 -2000,-2000 -4000,-4000 -6000,-5000l-10000 -11000c-6000,-6000 -12000,-12000 -18000,-17000 -2000,-2000 -5000,-4000 -7000,-6000 0,0 0,0 0,0 3000,3000 6000,5000 9000,8000 -1000,-1000 -1000,-1000 -1000,-1000 -3000,-2000 -5000,-5000 -8000,-7000 0,0 0,0 0,0 -16000,-13000 -32000,-26000 -49000,-37000l0 0 -1000 0 -3000 -2000 4000 3000 3000 2000c-11000,-6000 -21000,-12000 -32000,-17000 -5000,-5000 -12000,-9000 -20000,-13000 3000,1000 6000,3000 9000,4000 -3000,-1000 -6000,-3000 -9000,-4000 0,-1000 0,-1000 -1000,-1000 -3000,-1000 -5000,-3000 -8000,-4000 1000,1000 2000,1000 3000,2000 -36000,-16000 -77000,-25000 -121000,-24000 0,0 0,0 -1000,0 27000,-4000 52000,-2000 75000,4000 -23000,-6000 -48000,-8000 -75000,-4000 0,0 -1000,-1000 -1000,-1000 16000,-6000 30000,-7000 43000,-4000 0,-1000 -1000,-1000 -2000,-1000 -13000,-3000 -26000,-1000 -41000,5000 -1000,0 -1000,0 -2000,0 5000,-8000 10000,-11000 13000,-12000 0,0 -1000,0 -1000,0 -4000,0 -7000,4000 -12000,12000 0,0 -1000,0 -1000,0 -5000,-9000 -10000,-15000 -16000,-16000 0,0 -1000,0 -1000,0 6000,1000 11000,7000 17000,16000 -1000,0 -1000,0 -1000,0 0,0 -1000,0 -1000,0 -15000,-11000 -31000,-17000 -46000,-19000 -1000,0 -1000,0 -2000,0 16000,2000 32000,8000 48000,19000 -1000,0 -1000,0 -1000,0 -28000,-12000 -55000,-18000 -82000,-19000 -1000,0 -2000,0 -3000,0 27000,1000 56000,6000 84000,19000 0,0 0,0 -1000,0 -44000,-14000 -89000,-18000 -131000,-14000 2000,0 4000,-1000 6000,-1000 0,0 -1000,0 -1000,0 0,0 1000,0 1000,0 2000,-1000 3000,-1000 4000,-1000 -2000,0 -4000,1000 -6000,1000 -1000,0 -3000,0 -4000,1000 1000,-1000 3000,-1000 4000,-1000 -1000,0 -3000,0 -4000,1000 -2000,0 -4000,0 -5000,1000 -6000,0 -12000,1000 -17000,2000 1000,0 2000,0 3000,-1000 0,1000 -1000,1000 -2000,1000 -2000,0 -3000,1000 -5000,1000 -1000,0 -2000,0 -3000,1000 -1000,0 -3000,0 -4000,0 2000,0 4000,-1000 6000,-1000 7000,-1000 14000,-2000 20000,-3000 -8000,2000 -14000,4000 -18000,7000 -42000,6000 -82000,19000 -119000,38000 4000,-3000 9000,-5000 14000,-8000 -2000,1000 -3000,2000 -5000,3000 -6000,3000 -13000,6000 -18000,9000 -3000,1000 -5000,3000 -7000,4000 0,0 0,0 0,0 4000,-2000 9000,-5000 14000,-8000 -5000,3000 -9000,5000 -14000,8000 0,0 0,0 0,0 -6000,3000 -12000,7000 -18000,10000l5000 -3000c2000,-1000 4000,-2000 6000,-3000 -7000,5000 -12000,11000 -13000,18000 -26000,15000 -49000,32000 -71000,52000 -15000,14000 -30000,29000 -43000,45000 0,-4000 2000,-7000 4000,-11000 -2000,2000 -3000,4000 -4000,5000 -2000,3000 -4000,7000 -4000,10000 -32000,39000 -58000,84000 -75000,132000 0,0 0,-1000 0,-2000 0,2000 -1000,4000 -2000,6000 0,1000 0,2000 0,2000 -1000,3000 -2000,7000 -3000,10000 0,-1000 0,-2000 0,-3000 0,0 0,0 0,1000 0,1000 -1000,2000 -1000,4000 -1000,4000 -3000,8000 -4000,13000 0,1000 0,1000 -1000,2000 0,3000 -1000,5000 -1000,7000 -3000,10000 -5000,21000 -7000,31000 3000,-15000 7000,-32000 12000,-47000 1000,-6000 3000,-11000 5000,-16000 -2000,10000 3000,22000 13000,34000 11000,13000 28000,26000 50000,39000 -8000,26000 -14000,52000 -18000,78000 -4000,27000 -6000,53000 -7000,78000 -21000,-13000 -38000,-26000 -49000,-39000 -8000,-9000 -12000,-18000 -14000,-26000 0,2000 1000,5000 1000,7000 1000,8000 5000,16000 13000,25000 11000,13000 28000,26000 49000,39000 1000,49000 9000,95000 23000,137000 1000,0 2000,0 3000,1000 -14000,-42000 -22000,-88000 -22000,-136000l0 0c22000,13000 49000,25000 80000,37000 -1000,38000 2000,74000 8000,107000 1000,0 2000,1000 4000,1000 -6000,-33000 -8000,-68000 -7000,-106000l0 0c31000,12000 66000,23000 103000,34000 -2000,25000 -3000,50000 -2000,73000 2000,0 4000,0 6000,0 -1000,-23000 0,-47000 2000,-72000l0 0c38000,11000 78000,20000 119000,28000 -1000,11000 -2000,23000 -4000,34000 3000,-1000 5000,-1000 7000,-1000 2000,-11000 3000,-21000 4000,-32000l0 0c31000,6000 62000,11000 94000,15000 61000,-12000 124000,-28000 189000,-48000l-2000 -3000c1000,-5000 2000,-10000 3000,-16000 3000,-20000 6000,-40000 7000,-61000 1000,-6000 2000,-13000 2000,-19000 10000,0 20000,0 30000,0 27000,0 52000,-1000 74000,-3000 0,22000 -2000,44000 -5000,66000l5000 -2000c3000,-21000 5000,-43000 5000,-64000 31000,-3000 57000,-8000 78000,-14000 0,16000 -1000,31000 -2000,47000l3000 -2000c2000,-15000 3000,-31000 3000,-46000 12000,-4000 22000,-8000 31000,-12000l-3000 11000 0 0 2000 14000c-1000,7000 -2000,14000 -3000,21000 10000,-4000 20000,-9000 29000,-13000 1000,-11000 2000,-19000 3000,-26000zm-851000 186000c-15000,-10000 -28000,-20000 -36000,-30000 -3000,-4000 -6000,-8000 -8000,-12000 1000,2000 1000,4000 2000,5000 2000,4000 5000,8000 8000,12000 6000,8000 15000,15000 26000,23000 2000,0 5000,1000 8000,2000zm109000 156000c9000,7000 19000,15000 29000,22000 2000,1000 3000,2000 5000,3000 -12000,-8000 -23000,-16000 -34000,-26000l0 1000zm25000 -3000c21000,27000 46000,48000 75000,62000 -2000,-1000 -3000,-1000 -5000,-2000 4000,1000 7000,3000 10000,4000 11000,4000 23000,8000 36000,12000 4000,2000 7000,3000 11000,4000 1000,0 1000,1000 2000,1000 -4000,-1000 -7000,-3000 -10000,-5000 13000,4000 27000,7000 42000,10000 1000,2000 2000,3000 4000,3000 0,0 1000,0 1000,0 -1000,0 -2000,-1000 -3000,-2000 15000,2000 30000,5000 45000,7000 -2000,0 -4000,1000 -6000,1000 1000,0 1000,0 2000,0 2000,0 5000,0 7000,-1000 5000,0 9000,1000 14000,1000 8000,1000 16000,1000 24000,2000l-1000 0 0 1000c0,0 1000,0 1000,0 1000,0 1000,0 1000,0 0,0 0,0 0,0 1000,0 2000,0 3000,0 3000,0 6000,0 9000,-1000l0 0 6000 0 1000 0c3000,0 7000,0 10000,0 1000,0 1000,0 2000,0 3000,0 5000,-1000 8000,-1000 0,0 0,0 1000,0 -6000,0 -12000,1000 -18000,1000l0 0 9000 -1000 -1000 -1000 1000 -1000 12000 -2000 8000 -3000 0 -1000 3000 -2000 6000 0 7000 -1000 6000 -3000 10000 -2000 9000 -1000 7000 -2000 6000 -3000 2000 -2000 1000 -4000 7000 0 7000 0 9000 -3000 9000 -4000 4000 -2000c1000,0 3000,0 4000,0 -29000,19000 -61000,31000 -94000,36000 1000,0 1000,0 2000,0 0,-1000 1000,-1000 2000,-1000 33000,-5000 64000,-17000 93000,-36000 20000,-2000 37000,-5000 51000,-9000 -21000,12000 -43000,22000 -66000,29000 2000,-1000 4000,-1000 6000,-2000 22000,-7000 42000,-16000 62000,-27000 7000,-2000 14000,-5000 19000,-7000 2000,-1000 3000,-2000 5000,-3000 -5000,2000 -12000,5000 -19000,7000 38000,-22000 72000,-52000 101000,-87000 18000,-6000 32000,-13000 41000,-21000 -3000,3000 -5000,6000 -8000,9000 -5000,5000 -10000,11000 -15000,16000 1000,-1000 2000,-1000 2000,-2000 1000,0 1000,-1000 2000,-1000 -1000,0 -1000,0 -2000,1000 8000,-7000 14000,-15000 21000,-22000 -1000,1000 -2000,2000 -3000,3000 1000,-2000 3000,-3000 4000,-5000 1000,0 1000,0 1000,-1000 1000,-1000 3000,-3000 4000,-4000 0,0 -1000,0 -1000,1000 29000,-36000 53000,-76000 70000,-121000l0 4000 7000 -12000 2000 -3000c1000,-4000 3000,-8000 4000,-12000 0,1000 0,2000 -1000,3000 1000,-2000 2000,-4000 2000,-6000 0,0 0,0 0,0 1000,-1000 1000,-2000 2000,-3000 4000,-13000 8000,-26000 12000,-39000 0,-1000 0,-2000 0,-3000 0,0 0,0 0,-1000l1000 -2000c-9000,6000 -19000,11000 -29000,17000l0 0 2000 9000c-1000,8000 -1000,19000 -2000,27000l0 11000c-10000,8000 -24000,14000 -43000,20000 5000,-16000 10000,-33000 13000,-50000l-3000 3000c-4000,16000 -8000,32000 -13000,48000 -22000,6000 -48000,11000 -78000,14000 1000,-6000 3000,-11000 4000,-17000l-5000 3000c-2000,5000 -3000,9000 -4000,14000 -6000,0 -12000,1000 -18000,1000l1000 -4000c-9000,4000 -18000,8000 -27000,12000 -80000,37000 -160000,68000 -237000,93000l5000 7000 3000 8000 0 3000c0,1000 -1000,3000 -1000,5000 -19000,-3000 -39000,-5000 -57000,-8000 -4000,1000 -7000,2000 -10000,3000 22000,3000 43000,6000 66000,9000l0 0c-11000,35000 -21000,64000 -32000,86000 -28000,-4000 -57000,-8000 -84000,-13000 -1000,-19000 0,-42000 2000,-70000l-6000 2000c-1000,26000 -2000,49000 -1000,67000l0 0c-27000,-5000 -54000,-12000 -79000,-18000 -4000,-9000 -7000,-19000 -10000,-30000 -2000,0 -3000,0 -4000,1000 3000,10000 6000,19000 10000,28000 -22000,-7000 -43000,-13000 -62000,-20000 -2000,0 -4000,0 -6000,1000zm554000 -729000l7000 6000 13000 14000 19000 18000 -6000 -9000 7000 7000 4000 4000c1000,1000 1000,2000 2000,3000 0,0 0,0 -1000,-1000l1000 1000c1000,2000 2000,5000 2000,7000 -9000,-11000 -19000,-21000 -30000,-30000 -26000,-25000 -56000,-46000 -88000,-64000 -1000,-3000 -2000,-6000 -5000,-9000 -1000,-1000 -2000,-2000 -3000,-3000 11000,5000 22000,11000 32000,17000l0 1000 6000 4000 10000 8000c0,0 1000,1000 1000,1000l15000 12000 14000 13000zm21000 23000c10000,9000 19000,18000 27000,28000 1000,2000 0,5000 0,7000 0,1000 -1000,2000 -1000,3000 0,0 0,0 0,0 -2000,3000 -4000,6000 -6000,9000 -24000,-29000 -50000,-54000 -79000,-77000l-1000 -1000 0 -2000 0 -2000 0 -3000 -2000 -3000 -3000 -3000 -9000 -5000 3000 1000 -1000 -3000 -7000 -4000 -9000 -6000 -3000 -2000c0,-1000 0,-2000 0,-3000 19000,10000 36000,22000 53000,34000l-3000 -1000 1000 3000 3000 5000 -4000 0 5000 3000 9000 6000 3000 -1000 -3000 -4000 -3000 -4000 -2000 -2000c11000,9000 22000,18000 32000,27000zm29000 44000c0,-1000 1000,-1000 1000,-2000l8000 11000 8000 7000 4000 8000 5000 8000 3000 4000 3000 6000 1000 -3000 0 -6000 -8000 -13000 -4000 -4000 -5000 -6000 -13000 -12000 -1000 -2000c0,-2000 1000,-5000 0,-8000 9000,11000 18000,22000 26000,33000l1000 1000 4000 9000 8000 15000 -1000 1000 4000 7000 0 6000 6000 5000 6000 8000 11000 25000c-2000,2000 -4000,5000 -6000,7000l8000 23000 3000 10000c0,1000 -1000,2000 -2000,2000 -14000,-36000 -32000,-71000 -54000,-103000 -7000,-10000 -14000,-20000 -22000,-30000 3000,-2000 5000,-5000 6000,-7000zm18000 43000c21000,31000 38000,64000 51000,99000 -9000,7000 -23000,14000 -41000,20000 -1000,-2000 -1000,-4000 -2000,-6000 -15000,-47000 -37000,-92000 -64000,-132000 14000,-5000 24000,-10000 31000,-16000 9000,11000 17000,23000 25000,35000zm8000 113000c0,2000 -1000,4000 -1000,6000 -15000,-49000 -37000,-96000 -65000,-138000 -13000,4000 -29000,7000 -47000,9000l1000 1000 7000 6000 3000 9000 0 8000 -1000 7000 7000 7000 6000 2000 4000 8000 2000 8000 -6000 -4000 -5000 0c10000,28000 19000,58000 26000,89000 27000,-2000 49000,-6000 68000,-11000 -1000,2000 -1000,4000 -2000,6000 -18000,5000 -39000,9000 -65000,11000 7000,31000 11000,63000 13000,96000 2000,20000 2000,40000 2000,61000 30000,-3000 56000,-8000 77000,-14000 0,-53000 -8000,-105000 -23000,-155000 -1000,1000 -2000,1000 -4000,1000l3000 -13000zm-59000 125000c1000,19000 1000,37000 1000,56000 -21000,2000 -42000,3000 -66000,3000 -12000,0 -25000,0 -39000,0 4000,-53000 3000,-106000 -1000,-157000 34000,1000 65000,0 92000,-2000 7000,32000 11000,66000 13000,100000zm-112000 88000c-2000,19000 -5000,38000 -8000,57000 0,3000 -1000,6000 -1000,10000l-8000 -5000 -18000 5000 -12000 -6000 -15000 1000 -7000 -8000 -10000 -3000 -18000 2000 -1000 -10000 -14000 6000 -22000 2000 -2000 2000c0,-2000 1000,-4000 1000,-5000 0,-2000 0,-4000 1000,-6000 3000,-25000 7000,-49000 10000,-74000 11000,1000 23000,2000 34000,4000l2000 8000 8000 6000 14000 -2000 13000 -3000 -7000 -7000c21000,1000 42000,2000 62000,3000 -1000,7000 -2000,15000 -2000,23000zm-142000 43000c0,1000 0,3000 -1000,4000 0,5000 -1000,9000 -2000,14000l-4000 6000 -11000 3000 -11000 -6000 -11000 -5000 -10000 3000 -12000 -1000 -10000 -6000 -7000 -8000 -1000 -1000 -2000 -11000 4000 -12000 6000 -11000 3000 -11000 -8000 -11000 -14000 -1000 -14000 -4000 -11000 -4000 5000 -6000 5000 -10000 8000 -9000 2000 -4000c35000,6000 71000,11000 107000,15000 -3000,26000 -7000,51000 -11000,76000zm-94000 3000l1000 1000 7000 7000 16000 12000 9000 7000 9000 -4000 10000 -6000 12000 7000 1000 11000 4000 11000 0 11000 -6000 11000 -6000 6000c-36000,-4000 -71000,-10000 -105000,-16000 3000,-20000 6000,-40000 9000,-62000 1000,-5000 2000,-10000 2000,-15000 2000,-7000 3000,-15000 4000,-23000l11000 5000 8000 11000 12000 5000 4000 6000 -9000 10000 7000 5000zm-46000 -5000c-3000,21000 -6000,42000 -9000,61000 -41000,-8000 -82000,-17000 -119000,-27000 2000,-23000 5000,-46000 8000,-70000 1000,-2000 1000,-5000 1000,-7000 4000,-24000 8000,-47000 13000,-70000l2000 1000 9000 8000 11000 7000 8000 10000 10000 8000 12000 5000 19000 -1000 11000 7000 7000 11000 7000 11000 11000 5000 5000 2000c-1000,8000 -2000,16000 -4000,24000 0,5000 -1000,10000 -2000,15000zm-126000 -39000c-4000,24000 -6000,48000 -8000,71000 -38000,-10000 -73000,-22000 -104000,-33000 1000,-25000 4000,-51000 8000,-78000 2000,-10000 4000,-20000 6000,-30000 3000,-16000 6000,-32000 11000,-48000 30000,11000 63000,22000 99000,32000l2000 4000 1000 2000c-5000,24000 -10000,49000 -14000,74000 0,2000 -1000,4000 -1000,6000zm-103000 -75000c-2000,11000 -4000,22000 -6000,33000 -4000,27000 -7000,53000 -8000,78000 -31000,-12000 -58000,-25000 -80000,-38000 0,-25000 2000,-51000 7000,-78000 4000,-26000 10000,-52000 18000,-78000 5000,4000 11000,7000 18000,10000 18000,10000 39000,19000 62000,28000 -4000,15000 -8000,30000 -11000,45000zm-55000 -82000c-4000,-2000 -9000,-4000 -13000,-6000 2000,-5000 3000,-9000 5000,-14000 16000,-45000 37000,-88000 63000,-128000 19000,12000 43000,23000 70000,33000 -24000,46000 -43000,95000 -58000,146000 -25000,-10000 -48000,-20000 -67000,-31000zm-10000 -26000c-2000,6000 -4000,12000 -6000,17000 -22000,-12000 -39000,-26000 -50000,-39000 -10000,-12000 -15000,-23000 -13000,-34000 17000,-49000 43000,-93000 75000,-132000 -1000,6000 0,12000 4000,18000 2000,4000 4000,8000 7000,12000 10000,11000 25000,23000 44000,34000 -25000,38000 -45000,80000 -61000,124000zm12000 -176000c-2000,-6000 -3000,-11000 -3000,-17000 13000,-14000 26000,-28000 40000,-41000 23000,-21000 48000,-40000 75000,-56000 -1000,7000 2000,14000 8000,22000 8000,9000 19000,18000 34000,26000 -38000,33000 -72000,71000 -101000,114000 -19000,-12000 -34000,-23000 -44000,-35000 -4000,-4000 -7000,-9000 -9000,-13000zm125000 -95000l0 0c-6000,-8000 -9000,-15000 -8000,-22000 43000,-26000 91000,-44000 141000,-55000 0,4000 2000,8000 5000,13000 2000,-1000 4000,-1000 6000,-2000 -4000,-4000 -5000,-8000 -5000,-12000 51000,-10000 104000,-11000 158000,-4000 0,1000 0,1000 1000,1000 0,0 0,0 0,0 -46000,1000 -92000,11000 -136000,29000 -8000,-5000 -14000,-9000 -18000,-14000 -2000,1000 -4000,1000 -6000,2000 4000,4000 11000,9000 19000,14000 -44000,18000 -86000,44000 -124000,76000 -14000,-9000 -26000,-17000 -33000,-26000zm289000 2000l0 0 6000 0 7000 -2000 0 6000 2000 4000 -6000 2000 8000 6000 5000 1000 6000 0 -2000 8000 -5000 -3000 -6000 -1000 -6000 0 0 -6000 -7000 -1000 -5000 -4000 -6000 -3000 -7000 -1000 -4000 -2000c2000,-6000 4000,-12000 6000,-18000 8000,2000 16000,3000 24000,5000l-3000 1000 -5000 2000 -4000 3000 2000 3000zm37000 151000l0 0 2000 1000c0,6000 -1000,13000 -1000,19000l-5000 0 -8000 -7000 -11000 2000 -9000 -4000 10000 -5000 11000 -4000 11000 -2000zm-9000 -158000l0 0c2000,0 3000,0 5000,1000 0,1000 0,2000 0,4000l-1000 -1000 -4000 -4000zm80000 -21000l0 0 0 -2000 3000 0 1000 -2000 -1000 -3000 0 -2000 -1000 -2000c1000,1000 3000,2000 4000,3000l0 0 0 2000 6000 5000 -1000 2000 -2000 0 -1000 1000 -1000 1000 4000 3000 4000 4000 3000 1000 3000 0 2000 -1000 4000 0 4000 1000 8000 5000c-7000,2000 -17000,3000 -27000,4000 -3000,-3000 -7000,-7000 -10000,-10000l-2000 -4000 1000 -3000 -1000 -3000zm9000 -24000l0 0 -2000 0 2000 2000 1000 1000 -1000 1000 0 0c-8000,-4000 -16000,-7000 -24000,-11000l-1000 0 -11000 -5000 -5000 -1000c-18000,-7000 -37000,-12000 -56000,-16000 1000,0 1000,-1000 1000,-1000 37000,6000 73000,16000 107000,30000l0 0 -7000 -2000 -1000 1000 -2000 0 -2000 0 1000 1000zm-41000 -13000l0 0 2000 1000 3000 3000 15000 6000 -3000 -3000c8000,3000 16000,7000 24000,10000 16000,8000 33000,17000 48000,27000 -15000,-10000 -32000,-19000 -48000,-27000l-1000 0 2000 3000 1000 1000 -3000 0 3000 2000 -2000 0 -2000 0 0 2000 -2000 0 2000 3000 0 0c-3000,-1000 -5000,-2000 -7000,-4000l0 0 -1000 0c-27000,-17000 -56000,-30000 -87000,-40000 0,0 0,0 0,0 19000,4000 38000,10000 56000,16000zm46000 61000l0 0c3000,4000 7000,8000 10000,12000l-1000 0 -7000 -5000 -7000 -6000 -5000 0 -4000 1000 -4000 1000 -3000 -1000 -5000 1000 -3000 3000 -1000 6000 5000 5000 7000 4000 -1000 6000 -3000 4000 -1000 1000c-4000,-9000 -8000,-18000 -13000,-26000l2000 0 1000 -4000 -4000 -1000c14000,0 26000,0 37000,-1000zm16000 46000l0 0 -8000 0 -3000 5000 6000 1000 6000 -1000 5000 4000 6000 5000 8000 4000 5000 -1000 -6000 -5000 1000 -2000 9000 4000 0 -1000c11000,16000 20000,33000 29000,51000l-6000 -6000 -2000 -5000 -6000 -12000 -9000 -8000 -3000 7000 -5000 5000 -9000 -6000 -1000 -10000 -7000 -4000 -6000 -5000 -6000 -1000 -9000 -1000 -2000 7000 0 9000 -3000 9000 4000 7000 0 8000 0 0c-5000,-17000 -11000,-34000 -17000,-50000l6000 1000 -8000 -7000 -1000 -1000c-1000,-2000 -2000,-4000 -3000,-6000l2000 0 4000 -2000 5000 -2000 -1000 -7000 -2000 -8000 3000 -2000 4000 0 3000 -1000 8000 5000 9000 7000 2000 6000 -3000 3000 1000 6000zm18000 -3000l0 0c0,0 0,0 0,0l0 0 0 0zm-88000 151000l0 0 -8000 4000 -5000 6000 -6000 -10000 -3000 -12000 -2000 1000c0,-1000 0,-3000 0,-4000l11000 0 9000 4000 9000 0 4000 8000 -9000 3000zm4000 17000l0 0 -10000 4000 -11000 4000 -8000 -3000c0,-1000 0,-2000 0,-3000l5000 -3000 10000 0 10000 -2000 4000 3000zm-28000 -36000l0 0c0,-6000 0,-11000 0,-17000l2000 1000 6000 7000 -3000 9000 -5000 0zm40000 25000l0 0 10000 0 6000 2000 -12000 4000 -13000 -2000 9000 -4000zm5000 -69000l0 0 1000 -8000 1000 -4000c6000,0 11000,0 17000,1000l0 9000 -3000 9000 -8000 4000 -8000 -11000zm-8000 120000l0 0 6000 0 7000 -6000 5000 -6000 9000 -8000 8000 -4000 9000 -2000 8000 -4000 1000 -7000 6000 -8000 4000 -2000c3000,19000 5000,38000 7000,58000 -23000,0 -47000,-2000 -72000,-4000l2000 -7000zm20000 -208000l0 0 -2000 -2000 1000 0c1000,0 1000,1000 1000,2000zm-7000 -17000l0 0 -4000 0 -5000 -9000 -2000 -7000 1000 -4000c3000,6000 7000,13000 10000,20000zm-10000 27000l0 0 5000 -1000 4000 -4000 4000 -3000 1000 5000 -2000 5000 6000 1000 4000 -1000c7000,17000 12000,35000 18000,54000l-1000 1000 -6000 4000 -2000 1000c-8000,0 -17000,-1000 -26000,-1000l-8000 -2000 -8000 -5000 -8000 -7000 -8000 -5000 -7000 -8000 -5000 -6000 5000 -7000 6000 -6000 7000 -5000 8000 -3000 6000 -4000 7000 -3000zm-3000 -49000l0 0 -2000 4000 -2000 5000 -2000 6000 3000 5000 -2000 4000 -7000 4000 2000 -6000 -3000 -6000 -4000 7000 -4000 2000 -6000 2000 -5000 -2000 -6000 -1000 -5000 -6000c0,0 0,-1000 0,-1000l6000 1000 7000 2000 6000 -6000 -5000 -5000 1000 -6000 2000 -6000 -6000 1000 -4000 6000 -3000 -5000 -5000 0 -1000 0c0,-2000 0,-3000 -1000,-5000 5000,0 10000,1000 15000,1000 11000,1000 21000,2000 31000,2000 0,0 1000,1000 1000,1000l-1000 2000zm-46000 -10000l0 0c-1000,-2000 -1000,-5000 -1000,-7000l1000 0 0 4000 4000 4000c-1000,0 -3000,-1000 -4000,-1000zm3000 185000l0 0c0,2000 0,5000 0,7000l-8000 4000 -7000 9000 -5000 10000 -11000 -1000 3000 -9000 5000 -8000 7000 -7000 8000 -5000 8000 0zm-37000 -60000l0 0 -7000 6000 -4000 -7000 7000 -6000 4000 7000zm-38000 -89000l0 0 5000 -4000 4000 -1000c-1000,2000 -2000,4000 -2000,7000l-3000 0 -4000 -2000zm0 23000l0 0c0,1000 0,2000 -1000,3000l-5000 -1000 6000 -2000zm5000 -2000l0 0 4000 -2000 9000 5000 -7000 2000 -6000 1000 -2000 0c0,-2000 1000,-4000 2000,-6000zm10000 -20000l0 0 -5000 1000c1000,-3000 2000,-6000 2000,-8000l4000 0 5000 5000 -6000 2000zm0 -25000l0 0 -9000 0 -6000 0 -6000 0 -4000 -1000 -10000 1000 -4000 -3000 -2000 -3000 -4000 -3000 -4000 -2000 -1000 0c4000,-5000 8000,-10000 12000,-15000 14000,4000 28000,7000 43000,10000 -1000,5000 -3000,10000 -5000,16000zm-53000 -12000l0 0 -1000 0c-2000,-1000 -3000,-1000 -5000,-2000l-4000 -2000 -3000 -3000 -4000 -3000 -5000 -1000 -6000 -1000 -6000 0 -6000 0 -7000 1000 0 0c7000,-6000 14000,-11000 22000,-16000 11000,4000 24000,9000 38000,12000 -5000,5000 -9000,10000 -13000,15000zm-51000 -11000l0 0 -2000 0 -5000 -1000 -7000 1000 -8000 7000 -6000 1000 -3000 -3000 -4000 -2000 -6000 0 -9000 3000 3000 4000 4000 3000 -8000 3000 -6000 -1000 -4000 -1000 -7000 -1000 -7000 0 -9000 1000 -7000 3000c28000,-19000 56000,-35000 86000,-47000 8000,4000 18000,9000 29000,13000 -8000,6000 -16000,11000 -24000,17000zm-37000 84000l0 0c-12000,-4000 -24000,-8000 -35000,-12000 10000,-12000 20000,-23000 31000,-33000l0 0 5000 2000 2000 5000 5000 4000 5000 4000 -2000 9000 -8000 7000 -2000 6000 -2000 5000 1000 3000zm-61000 -54000l0 0 2000 3000 -8000 2000 -9000 2000 7000 1000 7000 1000 9000 -1000 8000 -1000 9000 -1000 9000 -2000 6000 2000 -5000 3000 6000 1000 7000 0 4000 -1000c-10000,10000 -20000,21000 -30000,31000 -20000,-7000 -37000,-16000 -52000,-24000 11000,-9000 23000,-18000 34000,-26000l0 3000 -6000 3000 2000 4000zm-134000 133000l0 0c29000,-42000 62000,-81000 100000,-113000 15000,8000 33000,17000 53000,24000 -31000,36000 -59000,77000 -83000,122000 -27000,-10000 -51000,-21000 -70000,-33000zm115000 206000l0 0 -5000 11000c-35000,-10000 -67000,-20000 -96000,-31000 15000,-52000 34000,-101000 58000,-146000 4000,2000 8000,3000 12000,5000l-2000 3000 -4000 12000 5000 9000 3000 10000 -2000 10000 -3000 10000 -2000 11000 1000 15000 -8000 7000 5000 9000 4000 11000 -5000 6000 5000 10000 6000 7000 -2000 -10000 1000 -12000 2000 -11000 -1000 -12000 0 -11000 2000 -13000 8000 -7000 6000 6000 -3000 10000 -2000 10000 5000 13000 3000 14000 2000 15000 6000 12000 2000 14000 -1000 13000zm55000 -257000l0 0 -3000 8000 1000 8000 -11000 10000 -9000 8000 -10000 5000 -10000 6000 -9000 6000 -9000 8000 -9000 8000 -9000 8000 -3000 12000 -2000 3000c-4000,-1000 -8000,-3000 -13000,-4000 24000,-45000 52000,-87000 82000,-122000 12000,4000 24000,9000 38000,13000l-5000 3000 -4000 10000 -5000 5000 -3000 5000 -7000 0zm5000 21000l0 0 1000 -12000 5000 5000 -6000 7000zm64000 286000l0 0 -10000 5000 -15000 -2000 -15000 -4000 -11000 -9000 -1000 -3000c17000,4000 35000,8000 53000,11000l-1000 2000zm4000 -8000l0 0c-20000,-3000 -40000,-7000 -59000,-12000l0 -2000 -1000 -12000 3000 -11000 4000 -11000 7000 -10000 7000 -6000 2000 -11000 12000 -8000 15000 -3000 12000 -4000 12000 0 3000 1000c-6000,29000 -12000,59000 -17000,89000zm136000 6000l0 0 -1000 -1000 -13000 -7000 -13000 -8000 -16000 -2000 5000 7000 13000 5000 10000 8000 11000 8000 3000 4000c0,0 0,1000 0,1000 -36000,-4000 -71000,-9000 -105000,-15000l0 0 8000 -9000 -12000 -5000 -15000 -1000 -3000 3000c5000,-27000 10000,-55000 15000,-82000l4000 0 8000 5000 10000 -1000 8000 -5000 13000 1000 14000 1000 9000 8000 10000 0 7000 12000 -4000 13000 4000 12000 7000 8000 10000 -10000 0 -12000 -1000 -11000 2000 -11000 4000 -10000 9000 -7000 10000 -7000c-3000,35000 -6000,71000 -11000,108000zm131000 25000l0 0c-27000,-1000 -55000,-2000 -86000,-5000 -10000,-1000 -21000,-2000 -31000,-3000l6000 -2000 -9000 -9000 -4000 -2000c5000,-39000 8000,-78000 11000,-115000l5000 -3000 12000 -3000 10000 -5000 8000 -7000 3000 -7000c26000,2000 51000,3000 74000,4000 4000,51000 5000,104000 1000,157000zm4000 -163000l0 0c-2000,-20000 -4000,-41000 -7000,-61000l8000 -3000 8000 -5000 10000 0 -6000 10000 11000 -3000 8000 -3000 7000 -3000 7000 -12000 -7000 6000 -9000 1000 -8000 -8000 -3000 -10000 5000 -8000 -7000 -2000 -6000 1000 -12000 3000 9000 -6000 5000 -7000 8000 -1000 8000 -1000 9000 0 7000 -1000 5000 -5000 4000 -3000c1000,3000 3000,5000 4000,8000l-1000 7000 -3000 6000 0 7000 6000 2000 6000 -1000 0 0c10000,29000 19000,59000 26000,90000 -27000,2000 -58000,3000 -92000,2000zm128000 -173000l0 0c-6000,6000 -17000,11000 -30000,15000 -9000,-14000 -19000,-27000 -29000,-39000l6000 3000 0 -5000 -4000 -6000 -4000 -7000 -3000 -8000 -7000 -10000 0 -5000 1000 -2000 -1000 -4000 -6000 -8000 0 0c29000,22000 55000,48000 77000,76000zm-109000 -73000l0 0 0 -1000c2000,2000 4000,4000 6000,6000l-1000 2000 2000 5000 6000 7000 9000 8000 7000 9000 8000 8000 8000 5000 2000 -1000c10000,13000 20000,27000 30000,40000 -14000,4000 -31000,7000 -51000,9000l0 0c-11000,-21000 -23000,-42000 -36000,-61000l0 0 -1000 -1000c-3000,-4000 -6000,-9000 -9000,-13000l0 0 10000 6000 3000 -3000 -1000 -6000 -10000 -5000 -9000 -5000 -3000 -7000 -6000 -4000 -5000 -2000c-3000,-4000 -7000,-8000 -11000,-12000 11000,-1000 21000,-3000 29000,-5000l4000 3000c0,0 0,0 0,0l6000 7000 2000 0c2000,2000 3000,3000 5000,4000l-1000 1000 3000 5000 4000 1000zm-3000 -7000l0 0 -1000 0c-1000,-1000 -3000,-2000 -4000,-3000l5000 3000zm-2000 -35000l0 0 -6000 -4000 -7000 -3000 -3000 -3000 -7000 -2000 -7000 -4000 0 -1000c10000,5000 20000,10000 30000,15000 0,1000 0,1000 0,2000zm-5000 -11000l0 0c3000,3000 4000,6000 5000,9000 -11000,-6000 -22000,-11000 -33000,-16000l-2000 -1000 -2000 -2000 -6000 -4000 -2000 0 1000 1000 2000 2000 0 0c-34000,-14000 -70000,-24000 -107000,-30000 0,0 0,0 -1000,0 0,0 0,0 0,0 44000,3000 85000,13000 122000,29000l0 1000 0 0 2000 1000 2000 2000 5000 4000 6000 2000 7000 2000 -13000 -7000 -5000 -2000 0 -2000 -2000 -1000c6000,3000 12000,5000 18000,8000 1000,1000 2000,3000 3000,4000zm-23000 -17000l0 0c8000,4000 14000,8000 19000,12000 -43000,-20000 -90000,-32000 -141000,-36000 0,0 0,-1000 -1000,-1000 45000,0 86000,8000 123000,25000zm-122000 -23000l0 0c30000,10000 59000,23000 87000,40000l-1000 0 -3000 0 -3000 0c0,0 -1000,0 -2000,1000l0 1000 -2000 0 -1000 2000 -2000 0 -3000 0 -1000 0c-22000,-18000 -46000,-33000 -70000,-44000 0,0 0,0 1000,0zm-1000 0l0 0c24000,11000 47000,26000 69000,45000l-1000 0 1000 3000 5000 4000 -4000 -1000 -5000 -2000 -3000 0 0 2000 0 3000 7000 5000 2000 -1000 4000 1000 4000 2000 -2000 0 -1000 4000 5000 1000 3000 0 2000 -1000 4000 1000 0 -2000c3000,3000 6000,6000 9000,9000 -3000,1000 -5000,1000 -8000,1000 -3000,0 -5000,0 -7000,0l2000 -1000 5000 1000 0 -3000 -4000 -1000 -4000 -1000 -1000 2000 -6000 0 -5000 -5000 -4000 0 -5000 -2000 1000 2000 6000 3000 1000 3000 6000 2000 4000 0 1000 0c-6000,1000 -12000,1000 -19000,0 -3000,-5000 -6000,-10000 -9000,-14000l2000 -1000 -4000 -2000c-16000,-24000 -33000,-43000 -53000,-57000 1000,0 1000,0 2000,0zm-3000 0l0 0c0,0 1000,0 1000,0 22000,16000 41000,39000 58000,67000l-2000 0 -4000 2000 5000 2000 2000 -2000c1000,2000 2000,4000 3000,5000 -9000,0 -19000,0 -30000,-1000 -2000,0 -3000,-1000 -5000,-1000l2000 0 5000 -2000 5000 1000 3000 -1000 -5000 -4000 -4000 3000 -4000 -1000 -4000 -3000 -5000 -4000 -4000 1000c-4000,-27000 -10000,-48000 -18000,-62000 1000,0 1000,0 1000,0zm-2000 0l0 0c0,0 1000,0 1000,0 7000,14000 12000,36000 16000,63000l-3000 1000 3000 0 0 0c1000,2000 1000,5000 1000,7000 -15000,-2000 -30000,-4000 -45000,-7000 10000,-29000 19000,-51000 27000,-64000zm-2000 -1000l0 0c0,1000 1000,1000 1000,1000 -8000,13000 -18000,35000 -28000,64000 -15000,-3000 -29000,-6000 -42000,-10000 23000,-26000 46000,-45000 69000,-55000zm0 0l0 0c-24000,10000 -48000,29000 -72000,54000 -13000,-3000 -25000,-7000 -36000,-12000 35000,-21000 70000,-36000 106000,-42000 1000,0 1000,0 2000,0zm-2000 0l0 0c-36000,6000 -73000,20000 -108000,42000 -11000,-4000 -20000,-9000 -28000,-13000 44000,-18000 89000,-28000 135000,-30000 1000,1000 1000,1000 1000,1000zm-134000 -16000l0 0c43000,-4000 88000,0 133000,14000 0,0 0,0 0,0 -52000,-11000 -102000,-13000 -151000,-7000 5000,-2000 11000,-5000 18000,-7000zm-18000 8000l0 0c48000,-7000 99000,-5000 151000,6000 0,0 -1000,0 -1000,0 -54000,-8000 -107000,-6000 -158000,3000 1000,-3000 3000,-6000 8000,-9000zm-6000 1000l0 0c-4000,3000 -7000,6000 -7000,10000 -51000,10000 -99000,28000 -142000,54000 1000,-7000 5000,-13000 13000,-18000 42000,-23000 88000,-39000 136000,-46000zm374000 82000l0 0 1000 1000c0,0 0,0 0,1000l-1000 -2000zm36000 31000l0 0c-7000,-6000 -16000,-14000 -24000,-20000l-1000 -2000c4000,3000 7000,6000 11000,9000 2000,2000 4000,4000 6000,6000 4000,4000 8000,8000 12000,11000l-4000 -4000zm35000 44000l0 0c0,-2000 -1000,-3000 -1000,-5000 5000,6000 10000,13000 16000,19000l3000 6000 4000 8000c-7000,-10000 -14000,-19000 -22000,-28000zm-529000 738000l0 0c-29000,-14000 -54000,-35000 -75000,-63000 20000,7000 43000,15000 67000,21000 12000,26000 27000,44000 45000,54000 -13000,-4000 -26000,-8000 -37000,-12000zm40000 12000l0 0c-18000,-9000 -32000,-27000 -44000,-52000 25000,6000 51000,12000 78000,18000 1000,22000 4000,38000 9000,45000 -15000,-3000 -30000,-7000 -43000,-11000zm92000 18000l0 0c-15000,-2000 -31000,-4000 -46000,-7000 -4000,-7000 -7000,-22000 -7000,-45000 27000,6000 55000,10000 83000,13000 -10000,21000 -20000,34000 -30000,39000zm81000 -33000l0 0 -2000 4000 -5000 4000 -5000 4000 -4000 4000 0 2000 -2000 3000 -5000 4000 4000 1000 -2000 3000 -3000 2000 -4000 2000 -7000 0 1000 2000 -4000 1000 -2000 0c-7000,0 -15000,-1000 -23000,-1000 -5000,-1000 -10000,-1000 -15000,-2000 10000,-4000 21000,-18000 32000,-38000 9000,1000 17000,1000 26000,2000 7000,1000 14000,1000 21000,2000l-1000 1000zm27000 -52000l0 0 -5000 7000 -1000 7000 -3000 7000 -4000 6000 -3000 6000 -5000 5000 -3000 6000 -2000 4000 0 0c-6000,0 -13000,-1000 -19000,-1000 -9000,-1000 -18000,-2000 -27000,-3000 11000,-21000 22000,-50000 33000,-86000 1000,0 1000,1000 2000,1000l9000 5000 8000 5000 9000 5000 8000 4000 4000 6000 2000 8000 -3000 8000zm371000 -509000l0 0 5000 7000 -1000 -6000 1000 -6000 -4000 -22000 -2000 -6000c0,-2000 0,-5000 0,-8000 3000,8000 6000,16000 9000,25000l1000 8000 2000 18000 -3000 4000 -2000 -2000 2000 16000 0 12000 2000 20000c-5000,-26000 -13000,-51000 -21000,-75000 0,-1000 1000,-1000 1000,-2000l1000 4000 7000 15000c1000,0 1000,-1000 2000,-2000zm-14000 -68000l0 0 -1000 -4000c5000,9000 8000,17000 12000,26000 0,2000 0,5000 0,7000l-4000 -9000 -4000 -14000 -3000 -6000zm-124000 411000l0 0c31000,-3000 57000,-8000 78000,-14000 -8000,24000 -18000,47000 -29000,68000l1000 -6000 -6000 1000 -4000 -4000 -2000 -6000 -5000 -3000 -7000 0 -7000 1000 -8000 0 -5000 -7000 -8000 -3000 -6000 -1000c3000,-8000 6000,-17000 8000,-26000zm-18000 7000l0 0 -2000 -5000c5000,-1000 10000,-1000 15000,-2000 -2000,9000 -5000,17000 -8000,25000l-4000 -5000 -5000 -5000 4000 -8000zm-134000 208000l0 0 8000 -5000 2000 -1000c-2000,2000 -4000,4000 -6000,5000 -2000,0 -3000,0 -4000,1000zm58000 -10000l0 0c-14000,4000 -31000,7000 -51000,9000 3000,-2000 6000,-5000 10000,-7000l6000 -3000 7000 -4000 7000 -6000 9000 -7000 9000 -5000 9000 -4000 7000 -3000 7000 -3000 9000 -2000 12000 -7000 9000 -6000 8000 -8000 8000 -7000 8000 -7000 6000 -8000 5000 -5000c5000,-2000 11000,-3000 16000,-5000 -29000,36000 -63000,66000 -101000,88000zm87000 -88000l0 0 4000 -6000 10000 -8000 8000 -7000 6000 -6000 7000 -7000 7000 -7000 4000 -5000c-9000,15000 -18000,29000 -29000,42000 -5000,2000 -11000,3000 -17000,4000zm62000 -25000l0 0c-9000,8000 -23000,15000 -42000,20000 29000,-36000 52000,-79000 68000,-127000 20000,-5000 35000,-13000 45000,-21000l0 1000 0 2000c-17000,47000 -41000,89000 -71000,125000zm87000 -301000l0 0 -2000 14000c-9000,5000 -20000,9000 -32000,13000 -1000,-53000 -9000,-105000 -24000,-155000 18000,-5000 32000,-12000 41000,-20000 10000,28000 18000,56000 23000,86000l-1000 23000 -4000 24000 -1000 15000zm4000 136000l0 0c2000,-8000 4000,-14000 6000,-19000 -2000,6000 -4000,12000 -6000,19000zm2000 -278000l0 0c3000,7000 5000,15000 7000,22000 1000,7000 3000,14000 5000,24000 -3000,-15000 -7000,-31000 -12000,-46000z"></path> <path class="fil5" d="M508000 360000c-95000,95000 -156000,150000 -88000,253000 68000,103000 502000,117000 914000,-50000 101000,-41000 192000,-86000 272000,-134000 -104000,93000 -244000,185000 -409000,261000 -411000,192000 -834000,192000 -911000,58000 -78000,-135000 38000,-277000 240000,-433000 -6000,14000 -12000,30000 -18000,45000z"></path> </g> <g> <path class="fil6" d="M1538000 99000l18000 17000c1000,0 1000,2000 0,3000 0,1000 -2000,1000 -3000,0l-18000 -17000c-1000,-1000 -1000,-2000 0,-3000 1000,-1000 2000,-1000 3000,0z"></path> <path class="fil6" d="M1464000 1000l85000 81000c2000,1000 2000,3000 1000,4000l-26000 28000c-1000,2000 -3000,2000 -5000,1000l-85000 -81000c-2000,-1000 -2000,-4000 -1000,-5000l26000 -28000c1000,-1000 3000,-1000 5000,0z"></path> <path class="fil7" d="M1448000 20000l12000 11000 -14000 15000 4000 3000 13000 -15000 12000 12000 -13000 15000 0 0 3000 3000 0 0 14000 -15000 12000 12000 -13000 14000 3000 4000 14000 -15000 12000 12000 -13000 14000 3000 4000 0 0 14000 -15000 12000 12000 -13000 14000 0 0 3000 4000 0 0 13000 -15000 9000 8000 3000 -3000 -8000 -9000 13000 -14000 0 0 -3000 -4000 0 0 -14000 15000 -12000 -12000 13000 -14000 0 0 -3000 -3000 -14000 14000 -12000 -11000 13000 -15000 -3000 -3000 -14000 14000 -12000 -11000 14000 -15000 0 0 -4000 -3000 0 0 -13000 14000 -13000 -11000 14000 -15000 -4000 -3000 -13000 14000 -12000 -11000c-1000,-1000 -3000,-1000 -3000,0 -1000,1000 -1000,3000 0,4000z"></path> <path class="fil8" d="M1434000 34000l3000 3000 30000 -32000 -3000 -4000c-2000,-1000 -4000,-1000 -5000,0l-26000 28000c-1000,1000 -1000,4000 1000,5000z"></path> <path class="fil6" d="M1607000 163000l17000 17000c1000,1000 1000,2000 1000,3000 -1000,1000 -3000,1000 -4000,0l-18000 -17000c-1000,-1000 -1000,-2000 0,-3000 1000,-1000 3000,-1000 4000,0z"></path> <path class="fil6" d="M1696000 281000l-86000 -81000c-1000,-1000 -1000,-3000 0,-4000l26000 -29000c1000,-1000 3000,-1000 4000,0l86000 81000c1000,1000 1000,3000 0,5000l-25000 28000c-2000,1000 -4000,1000 -5000,0z"></path> <path class="fil7" d="M1621000 183000l9000 8000 -13000 15000 3000 3000 0 0 13000 -14000 13000 11000 -14000 15000 0 0 4000 3000 0 0 13000 -14000 13000 11000 -14000 15000 4000 3000 13000 -14000 13000 11000 -14000 15000 0 0 4000 3000 0 0 13000 -14000 12000 11000 -13000 15000 0 0 3000 3000 0 0 14000 -14000 12000 11000c1000,1000 2000,1000 3000,0 1000,-1000 1000,-3000 0,-4000l-12000 -11000 14000 -15000 0 0 -4000 -3000 0 0 -13000 15000 -13000 -12000 14000 -15000 0 0 -4000 -3000 0 0 -13000 15000 -13000 -12000 14000 -15000 -4000 -3000 -13000 15000 -12000 -12000 13000 -14000 0 0 -4000 -4000 0 0 -13000 15000 -12000 -12000 13000 -14000 0 0 -3000 -4000 -14000 15000 -9000 -8000 -3000 3000z"></path> <path class="fil8" d="M1726000 248000l-4000 -3000 -30000 32000 4000 4000c1000,1000 3000,1000 5000,0l25000 -28000c1000,-2000 1000,-4000 0,-5000z"></path> <path class="fil9" d="M1599000 71000l48000 46000c5000,4000 5000,10000 1000,15000l-59000 64000c-4000,4000 -10000,4000 -15000,0l-48000 -46000c-4000,-4000 -5000,-10000 -1000,-15000l59000 -64000c4000,-4000 11000,-4000 15000,0z"></path> <polygon class="fil7" points="1621000,92000 1625000,95000 1552000,175000 1548000,172000 "></polygon> <polygon class="fil8" points="1560000,97000 1624000,158000 1599000,185000 1535000,124000 "></polygon> <path class="fil6" d="M1617000 74000l26000 24000c2000,3000 3000,7000 0,9000l-2000 3000 -35000 -33000 2000 -3000c3000,-2000 7000,-2000 9000,0z"></path> <path class="fil7" d="M1546000 147000l30000 29000c1000,1000 1000,2000 0,3000 -1000,1000 -2000,1000 -3000,0l-30000 -28000c-1000,-1000 -1000,-2000 0,-3000 0,-1000 2000,-1000 3000,-1000z"></path> <path class="fil6" d="M1556000 193000l-26000 -24000c-2000,-3000 -2000,-7000 0,-9000l3000 -3000 35000 33000 -3000 3000c-2000,2000 -6000,2000 -9000,0z"></path> <path class="fil10" d="M1484000 158000c6000,-6000 29000,7000 53000,30000 24000,22000 39000,45000 33000,51000 -5000,6000 -29000,-8000 -53000,-30000 -23000,-22000 -38000,-45000 -33000,-51000z"></path> <path class="fil6" d="M1537000 188000c24000,22000 39000,45000 33000,51000 9000,-10000 -1000,-38000 -25000,-61000 -23000,-22000 -52000,-30000 -61000,-20000 6000,-6000 29000,7000 53000,30000z"></path> <path class="fil7" d="M1532000 193000c1000,1000 1000,3000 0,4000l-21000 22000c-1000,1000 -2000,1000 -3000,0 -1000,-1000 -1000,-2000 0,-3000l20000 -22000c1000,-1000 3000,-1000 4000,-1000z"></path> <path class="fil11" d="M1504000 213000c2000,-3000 7000,-3000 10000,0 3000,3000 3000,7000 0,10000 -3000,3000 -7000,3000 -10000,1000 -3000,-3000 -3000,-8000 0,-11000z"></path> </g> <path class="fil12" d="M2157000 814000c-6000,11000 -13000,22000 -20000,34000 -7000,12000 -14000,24000 -22000,35000 -12000,20000 -24000,39000 -37000,57000 -13000,19000 -26000,35000 -40000,50000 -2000,3000 -4000,4000 -7000,5000 -3000,1000 -6000,2000 -9000,3000 0,0 0,0 -1000,0 0,0 -1000,0 -1000,0 -5000,0 -9000,-2000 -13000,-5000 -4000,-2000 -6000,-7000 -7000,-12000 0,-7000 0,-15000 0,-22000 0,-7000 1000,-15000 1000,-22000 -6000,9000 -13000,18000 -20000,27000 -8000,9000 -15000,18000 -22000,26000 -2000,3000 -5000,4000 -8000,5000 -3000,1000 -6000,2000 -9000,3000 0,0 0,0 -1000,0 0,0 0,0 -1000,0 -5000,0 -9000,-2000 -13000,-5000 -4000,-2000 -6000,-7000 -6000,-12000 -1000,-10000 -1000,-19000 0,-30000 0,-10000 1000,-20000 2000,-30000 1000,-12000 2000,-23000 4000,-34000 1000,-12000 3000,-22000 5000,-33000 1000,-7000 2000,-14000 4000,-21000 1000,-7000 2000,-13000 3000,-19000l31000 0c0,2000 -1000,4000 -1000,6000 0,1000 0,3000 -1000,5000 0,4000 -1000,8000 -2000,12000 -1000,4000 -1000,8000 -2000,12000 -3000,17000 -6000,34000 -9000,51000 -2000,17000 -4000,35000 -4000,52000 4000,-5000 8000,-10000 12000,-15000 4000,-5000 8000,-11000 12000,-16000 0,0 2000,-2000 6000,-8000 3000,-5000 7000,-11000 12000,-18000 0,0 0,0 0,0 0,0 0,0 0,0 4000,-5000 7000,-10000 10000,-15000 3000,-4000 5000,-7000 6000,-9000 0,-3000 1000,-6000 1000,-8000 1000,-3000 1000,-6000 2000,-8000 1000,-8000 2000,-15000 3000,-22000 2000,-6000 3000,-13000 4000,-19000l30000 0c-1000,6000 -2000,13000 -3000,20000 -2000,7000 -3000,15000 -4000,23000 -1000,5000 -2000,10000 -3000,16000 0,5000 -1000,11000 -2000,16000 -2000,11000 -3000,23000 -4000,34000 -1000,11000 -2000,21000 -3000,29000 17000,-20000 32000,-41000 46000,-63000 14000,-22000 28000,-44000 42000,-66000 1000,-2000 1000,-3000 2000,-4000 1000,-2000 2000,-3000 3000,-5000l34000 0zm41000 151000l-10000 30000 -67000 0c-5000,0 -10000,-1000 -15000,-3000 -5000,-2000 -9000,-6000 -11000,-11000 -1000,-2000 -2000,-5000 -3000,-7000 -1000,-3000 -1000,-6000 -1000,-8000 0,-1000 0,-1000 0,-2000 0,-1000 0,-2000 0,-2000 1000,-5000 2000,-9000 3000,-13000 1000,-4000 3000,-8000 4000,-11000 4000,-10000 10000,-18000 16000,-25000 6000,-6000 13000,-11000 19000,-14000 3000,-2000 6000,-3000 9000,-4000 2000,-1000 5000,-2000 8000,-2000 1000,0 2000,0 4000,-1000 1000,0 2000,0 4000,0 8000,0 15000,3000 22000,7000 6000,5000 10000,12000 10000,20000 0,2000 -1000,3000 -1000,5000 0,2000 -1000,4000 -2000,6000 -1000,5000 -4000,10000 -10000,16000 -5000,6000 -12000,13000 -21000,19000l42000 0zm-40000 -43000c-7000,0 -14000,3000 -19000,9000 -6000,5000 -10000,11000 -12000,17000 0,0 0,0 -1000,1000 0,0 0,0 0,0 10000,-6000 17000,-11000 22000,-15000 5000,-5000 8000,-9000 10000,-12000zm302000 -122000l-71000 215000 -32000 0 25000 -76000 -43000 0 -19000 56000 -32000 0 19000 -56000 -27000 0 10000 -30000 27000 0 30000 -95000 32000 0 -31000 95000 44000 0 36000 -109000 32000 0zm80000 165000l-9000 30000 -30000 0c-3000,0 -6000,0 -9000,-1000 -3000,-1000 -5000,-2000 -7000,-4000 -3000,2000 -7000,3000 -10000,5000 -4000,1000 -7000,2000 -11000,2000 -1000,0 -2000,0 -4000,0 -1000,1000 -2000,1000 -3000,1000 -7000,0 -12000,-2000 -18000,-5000 -6000,-3000 -10000,-7000 -13000,-13000 -2000,-3000 -3000,-6000 -3000,-8000 -1000,-3000 -1000,-5000 -1000,-8000 0,-5000 1000,-11000 3000,-15000 2000,-6000 5000,-10000 8000,-14000 10000,-14000 23000,-24000 38000,-29000 15000,-6000 31000,-9000 47000,-9000 1000,0 2000,0 2000,0 1000,0 2000,0 3000,0l0 30000c-7000,0 -13000,0 -20000,1000 -6000,1000 -12000,2000 -18000,5000 -6000,2000 -11000,4000 -15000,7000 -5000,4000 -9000,8000 -13000,12000 0,1000 0,1000 -1000,2000 0,0 0,1000 -1000,2000 0,1000 -1000,1000 -1000,2000 0,0 0,1000 -1000,2000 0,1000 0,1000 0,2000 -1000,1000 -1000,2000 -1000,2000 0,1000 1000,2000 1000,3000 1000,0 2000,1000 3000,1000 8000,0 14000,-3000 18000,-8000 4000,-6000 7000,-11000 9000,-18000 1000,-1000 1000,-3000 1000,-4000 1000,-1000 1000,-2000 2000,-3000l28000 9000 -6000 21000 32000 0zm110000 -53000l-10000 30000 -25000 0c-1000,2000 -3000,5000 -5000,7000 -1000,3000 -3000,5000 -5000,8000 -6000,8000 -12000,15000 -19000,21000 -8000,6000 -15000,12000 -23000,17000l-9000 0c-1000,-1000 -2000,-3000 -3000,-5000 -1000,-2000 -3000,-3000 -4000,-5000 -3000,-6000 -7000,-13000 -9000,-20000 -2000,-6000 -3000,-14000 -3000,-23000 0,-6000 0,-11000 1000,-17000 1000,-6000 2000,-11000 4000,-17000 0,-2000 1000,-4000 2000,-6000 0,-2000 1000,-4000 1000,-6000l33000 0c-2000,5000 -4000,10000 -6000,15000 -1000,5000 -2000,10000 -3000,16000 -1000,2000 -1000,5000 -2000,7000 0,3000 0,6000 0,8000 0,2000 0,4000 0,7000 1000,2000 1000,4000 1000,6000 4000,-4000 8000,-7000 11000,-11000 3000,-4000 6000,-8000 9000,-12000 -1000,-2000 -2000,-4000 -2000,-6000 -1000,-2000 -1000,-4000 -1000,-6000 0,-2000 0,-3000 0,-4000 0,-1000 0,-3000 1000,-4000 1000,-5000 5000,-9000 9000,-13000 5000,-3000 10000,-6000 15000,-7000 1000,0 2000,0 3000,0 1000,-1000 2000,-1000 3000,-1000l21000 0c-1000,4000 -2000,7000 -3000,10000 -1000,4000 -2000,7000 -3000,11000l21000 0zm89000 53000l-10000 30000 -67000 0c-5000,0 -10000,-1000 -15000,-3000 -5000,-2000 -9000,-6000 -11000,-11000 -2000,-2000 -3000,-5000 -3000,-7000 -1000,-3000 -1000,-6000 -1000,-8000 0,-1000 0,-1000 0,-2000 0,-1000 0,-2000 0,-2000 1000,-5000 1000,-9000 3000,-13000 1000,-4000 2000,-8000 4000,-11000 4000,-10000 9000,-18000 16000,-25000 6000,-6000 12000,-11000 19000,-14000 3000,-2000 6000,-3000 9000,-4000 2000,-1000 5000,-2000 8000,-2000 1000,0 2000,0 3000,-1000 2000,0 3000,0 4000,0 9000,0 16000,3000 23000,7000 6000,5000 9000,12000 9000,20000 0,2000 0,3000 0,5000 0,2000 -1000,4000 -2000,6000 -1000,5000 -5000,10000 -10000,16000 -5000,6000 -12000,13000 -21000,19000l42000 0zm-40000 -43000c-7000,0 -14000,3000 -19000,9000 -6000,5000 -10000,11000 -13000,17000 0,0 0,0 0,1000 0,0 0,0 0,0 9000,-6000 17000,-11000 22000,-15000 5000,-5000 8000,-9000 10000,-12000zm289000 -77000l-46000 6000 -45000 149000 -29000 -9000 41000 -136000 -84000 11000 -4000 -30000 98000 -13000 8000 -26000 29000 9000 -4000 13000 32000 -4000 4000 30000zm82000 120000l-10000 30000 -21000 0c-8000,0 -14000,-2000 -19000,-7000 -4000,-5000 -7000,-11000 -7000,-18000 0,0 0,-1000 0,-2000 0,-1000 0,-1000 0,-2000 1000,-1000 1000,-1000 1000,-2000 0,-1000 1000,-2000 1000,-2000 0,-3000 1000,-5000 2000,-7000 1000,-2000 1000,-4000 2000,-6000 0,-1000 1000,-2000 1000,-3000 0,-1000 1000,-1000 1000,-2000 1000,-3000 2000,-6000 2000,-8000 1000,-3000 2000,-5000 2000,-8000 -6000,3000 -12000,7000 -17000,12000 -6000,6000 -11000,12000 -15000,19000 -2000,2000 -3000,5000 -5000,8000 -1000,3000 -3000,5000 -4000,8000l-6000 20000 -32000 0 61000 -188000 32000 0 -31000 96000c2000,-2000 5000,-3000 8000,-4000 2000,-1000 5000,-1000 8000,-2000 0,0 1000,0 2000,0 1000,0 2000,0 3000,0 1000,0 3000,0 5000,0 2000,0 3000,1000 5000,1000 5000,2000 10000,6000 12000,11000 3000,5000 4000,11000 4000,17000 0,3000 0,6000 -1000,10000 0,3000 -2000,7000 -3000,11000 -1000,2000 -1000,3000 -2000,5000 0,1000 -1000,3000 -1000,4000 0,2000 -1000,3000 -1000,5000 -1000,1000 -1000,3000 -2000,4000l25000 0zm104000 0l-11000 30000 -66000 0c-6000,0 -11000,-1000 -16000,-3000 -5000,-2000 -8000,-6000 -11000,-11000 -1000,-2000 -2000,-5000 -3000,-7000 0,-3000 -1000,-6000 -1000,-8000 0,-1000 0,-1000 1000,-2000 0,-1000 0,-2000 0,-2000 0,-5000 1000,-9000 2000,-13000 2000,-4000 3000,-8000 4000,-11000 5000,-10000 10000,-18000 16000,-25000 6000,-6000 13000,-11000 20000,-14000 3000,-2000 5000,-3000 8000,-4000 3000,-1000 6000,-2000 8000,-2000 1000,0 3000,0 4000,-1000 1000,0 2000,0 4000,0 8000,0 16000,3000 22000,7000 7000,5000 10000,12000 10000,20000 0,2000 0,3000 0,5000 -1000,2000 -1000,4000 -2000,6000 -2000,5000 -5000,10000 -10000,16000 -5000,6000 -13000,13000 -22000,19000l43000 0zm-41000 -43000c-7000,0 -13000,3000 -19000,9000 -5000,5000 -9000,11000 -12000,17000 0,0 0,0 0,1000 0,0 0,0 0,0 9000,-6000 16000,-11000 21000,-15000 5000,-5000 9000,-9000 10000,-12000zm303000 -100000c1000,3000 2000,5000 3000,8000 1000,3000 1000,6000 1000,8000 0,1000 0,2000 0,3000 0,1000 0,2000 0,3000 -1000,5000 -3000,10000 -5000,15000 -2000,5000 -5000,9000 -7000,13000 -5000,7000 -10000,13000 -14000,20000 -5000,6000 -10000,12000 -14000,19000l-25000 -17000c5000,-7000 9000,-14000 14000,-20000 4000,-7000 9000,-13000 14000,-19000 1000,-1000 1000,-2000 2000,-4000 1000,-1000 1000,-2000 2000,-3000 0,-1000 1000,-3000 1000,-4000 1000,-2000 1000,-3000 2000,-5000 -2000,0 -5000,0 -8000,1000 -3000,1000 -7000,2000 -12000,4000 -3000,1000 -6000,2000 -8000,3000 -3000,1000 -6000,3000 -10000,4000 -2000,1000 -4000,2000 -6000,3000 -2000,1000 -4000,3000 -6000,4000 -2000,1000 -3000,2000 -5000,3000 -1000,1000 -3000,2000 -5000,3000 -2000,3000 -5000,5000 -7000,8000 -3000,3000 -4000,6000 -5000,9000 0,0 0,1000 0,1000 0,1000 0,1000 0,1000 0,2000 0,3000 1000,4000 0,1000 1000,3000 2000,4000 7000,7000 13000,14000 20000,21000 6000,8000 13000,15000 19000,22000 3000,2000 4000,4000 5000,7000 1000,3000 1000,5000 2000,8000 0,1000 0,1000 0,2000 0,0 0,1000 0,1000 0,3000 0,6000 -1000,9000 -1000,3000 -2000,5000 -3000,8000 -3000,8000 -8000,14000 -15000,19000 -7000,5000 -15000,7000 -23000,7000l-90000 0 10000 -30000c13000,0 26000,0 40000,0 13000,0 26000,0 40000,0 3000,0 5000,-1000 8000,-4000 2000,-2000 3000,-5000 4000,-8000 -3000,-4000 -7000,-7000 -10000,-10000 -3000,-4000 -6000,-7000 -9000,-11000 -4000,-3000 -7000,-7000 -10000,-10000 -3000,-4000 -6000,-7000 -10000,-11000 -4000,-4000 -6000,-8000 -8000,-13000 -2000,-5000 -3000,-10000 -3000,-15000 1000,-14000 6000,-25000 16000,-35000 10000,-9000 21000,-17000 33000,-23000 4000,-2000 8000,-4000 12000,-5000 4000,-2000 8000,-3000 12000,-5000 3000,-1000 7000,-3000 12000,-4000 4000,-1000 9000,-2000 13000,-2000 1000,0 2000,0 2000,0 1000,0 2000,0 2000,0 6000,0 10000,1000 15000,3000 5000,2000 8000,5000 12000,10000zm82000 98000l-10000 31000 -15000 0c-2000,12000 -9000,23000 -18000,31000 -10000,9000 -22000,13000 -34000,13000 -1000,0 -1000,0 -2000,0 0,0 -1000,0 -2000,0 0,0 -1000,0 -1000,0 -1000,0 -1000,0 -2000,0 -11000,-2000 -20000,-7000 -27000,-15000 -7000,-9000 -10000,-19000 -10000,-30000 0,-14000 5000,-27000 16000,-39000 10000,-11000 23000,-17000 38000,-17000 9000,0 17000,3000 24000,8000 7000,4000 12000,10000 16000,18000l27000 0zm-57000 31000c-6000,-1000 -10000,-4000 -14000,-8000 -4000,-4000 -6000,-9000 -7000,-15000 -3000,2000 -6000,5000 -8000,9000 -2000,3000 -3000,6000 -4000,10000 0,0 0,1000 0,1000 0,0 0,0 0,1000 0,0 0,0 0,0 0,1000 0,1000 0,1000 0,4000 1000,7000 3000,10000 2000,3000 5000,4000 10000,4000 4000,0 8000,-1000 11000,-4000 4000,-2000 7000,-6000 9000,-9000zm130000 -144000l-52000 158000 31000 0 -10000 30000 -27000 0c-8000,0 -14000,-2000 -19000,-7000 -4000,-5000 -7000,-11000 -7000,-18000 0,0 0,-1000 0,-2000 0,-1000 0,-1000 0,-2000 1000,-1000 1000,-1000 1000,-2000 0,-1000 1000,-2000 1000,-2000l50000 -155000 32000 0zm82000 158000l-10000 30000c-1000,0 -3000,0 -4000,0 -2000,0 -4000,0 -5000,0 -5000,0 -9000,0 -13000,-2000 -4000,-2000 -8000,-4000 -11000,-7000 -4000,3000 -9000,5000 -14000,7000 -5000,2000 -9000,2000 -14000,2000 -1000,0 -2000,0 -3000,0 -1000,0 -2000,0 -3000,0 -1000,0 -2000,0 -3000,-1000 -1000,0 -2000,0 -3000,0 -7000,-3000 -13000,-7000 -17000,-13000 -3000,-6000 -5000,-12000 -5000,-19000 0,-1000 0,-2000 0,-3000 0,-1000 0,-2000 1000,-3000 0,-1000 0,-2000 0,-3000 0,-1000 1000,-2000 1000,-3000l17000 -54000 32000 0 -20000 63000c-1000,1000 -1000,1000 -1000,2000 0,1000 0,1000 0,1000 0,1000 0,2000 1000,2000 0,1000 1000,1000 3000,1000 0,0 1000,0 2000,0 0,0 1000,0 1000,0 4000,-1000 7000,-3000 10000,-6000 3000,-3000 5000,-5000 6000,-9000 0,0 0,0 0,0 1000,0 1000,0 1000,0l17000 -54000 32000 0 -20000 63000c0,1000 -1000,1000 -1000,2000 0,1000 0,1000 0,1000 0,1000 0,2000 1000,2000 0,1000 1000,1000 3000,1000l19000 0zm71000 -68000l-10000 30000 -16000 0 -12000 38000 36000 0 -10000 30000 -34000 0c-7000,0 -13000,-2000 -18000,-7000 -5000,-5000 -7000,-10000 -7000,-17000 0,-1000 0,-1000 0,-2000 0,-1000 0,-2000 0,-2000 1000,-1000 1000,-2000 1000,-3000 0,0 0,-1000 1000,-2000l11000 -35000 -17000 0 10000 -30000 17000 0 12000 -36000 28000 9000 -8000 27000 16000 0zm62000 68000l-10000 30000 -28000 0c-7000,0 -13000,-2000 -18000,-7000 -5000,-5000 -7000,-11000 -7000,-18000 0,0 0,-1000 0,-2000 0,-1000 0,-1000 0,-2000 0,-1000 1000,-1000 1000,-2000 0,-1000 0,-2000 0,-2000l21000 -66000 32000 0 -22000 69000 31000 0zm7000 -115000c0,6000 -2000,11000 -6000,15000 -4000,4000 -9000,6000 -15000,6000 -5000,0 -10000,-2000 -14000,-6000 -4000,-4000 -6000,-9000 -6000,-15000 0,-6000 2000,-11000 6000,-15000 4000,-4000 9000,-6000 14000,-6000 6000,0 11000,2000 15000,6000 4000,4000 6000,9000 6000,15000zm112000 70000l-10000 31000 -15000 0c-3000,12000 -9000,23000 -19000,31000 -10000,9000 -21000,13000 -33000,13000 -1000,0 -2000,0 -2000,0 -1000,0 -1000,0 -2000,0 0,0 -1000,0 -2000,0 0,0 -1000,0 -1000,0 -11000,-2000 -20000,-7000 -27000,-15000 -7000,-9000 -11000,-19000 -11000,-30000 0,-14000 6000,-27000 16000,-39000 11000,-11000 24000,-17000 39000,-17000 9000,0 17000,3000 24000,8000 7000,4000 12000,10000 15000,18000l28000 0zm-58000 31000c-5000,-1000 -9000,-4000 -13000,-8000 -4000,-4000 -6000,-9000 -7000,-15000 -3000,2000 -6000,5000 -8000,9000 -2000,3000 -4000,6000 -4000,10000 0,0 0,1000 0,1000 0,0 0,0 0,1000 -1000,0 -1000,0 -1000,0 0,1000 0,1000 0,1000 1000,4000 2000,7000 4000,10000 2000,3000 5000,4000 10000,4000 4000,0 7000,-1000 11000,-4000 4000,-2000 6000,-6000 8000,-9000zm167000 14000l-10000 30000 -21000 0c-8000,0 -14000,-2000 -18000,-7000 -5000,-5000 -7000,-11000 -7000,-18000 0,-1000 0,-3000 0,-4000 0,-2000 1000,-3000 1000,-4000 1000,-2000 1000,-3000 1000,-5000 1000,-1000 1000,-2000 2000,-3000 0,-3000 1000,-6000 2000,-8000 1000,-3000 2000,-6000 2000,-8000 1000,-1000 1000,-1000 1000,-2000 0,0 0,0 0,-1000 0,-1000 1000,-2000 1000,-3000 0,-1000 1000,-3000 1000,-4000 -2000,1000 -4000,2000 -6000,3000 -2000,2000 -4000,3000 -7000,5000 -5000,5000 -11000,11000 -16000,18000 -5000,7000 -9000,13000 -11000,21000l-7000 20000 -32000 0 32000 -99000 32000 0 -2000 7000c2000,-1000 4000,-3000 7000,-3000 2000,-1000 4000,-2000 7000,-2000 1000,-1000 2000,-1000 3000,-1000 1000,0 3000,0 4000,0 2000,0 3000,0 5000,0 2000,0 3000,1000 5000,1000 6000,2000 10000,6000 13000,11000 2000,5000 4000,11000 4000,17000 0,3000 -1000,6000 -2000,10000 0,3000 -1000,7000 -3000,11000 0,2000 -1000,3000 -1000,5000 -1000,1000 -1000,3000 -2000,4000 0,1000 0,1000 0,2000 0,0 0,1000 0,1000 -1000,1000 -1000,2000 -1000,3000 -1000,1000 -1000,2000 -1000,3000l24000 0z"></path> </g> </g> </svg> 